<?xml version="1.0" encoding="utf-8"?>
<!-- Generator: Adobe Illustrator 16.0.4, SVG Export Plug-In . SVG Version: 6.00 Build 0)  -->
<!DOCTYPE svg PUBLIC "-//W3C//DTD SVG 1.1//EN" "http://www.w3.org/Graphics/SVG/1.1/DTD/svg11.dtd">
<svg version="1.1" id="Layer_1" xmlns="http://www.w3.org/2000/svg" xmlns:xlink="http://www.w3.org/1999/xlink" x="0px" y="0px"
	 width="411.324px" height="26.412px" viewBox="0 0 411.324 26.412" enable-background="new 0 0 411.324 26.412"
	 xml:space="preserve">
<g>
	<path fill="#444444" d="M23.188,20.134v4.051c-2.706,1.479-5.822,2.229-9.363,2.229c-2.875,0-5.314-0.576-7.314-1.735
		C4.505,23.52,2.912,21.925,1.751,19.9c-1.167-2.03-1.75-4.232-1.75-6.593c0-3.75,1.332-6.917,4.006-9.469
		C6.686,1.28,9.977,0.002,13.9,0.002c2.698,0,5.708,0.711,9.014,2.11V6.05c-3.011-1.701-5.95-2.551-8.824-2.551
		c-2.944,0-5.393,0.931-7.341,2.798c-1.944,1.862-2.918,4.205-2.918,7.011c0,2.832,0.951,5.162,2.872,6.982
		c1.913,1.829,4.367,2.729,7.346,2.729C17.168,23.02,20.219,22.062,23.188,20.134"/>
	<path fill="#444444" d="M39.188,3.495c-2.94,0-5.358,0.924-7.248,2.765c-1.896,1.851-2.838,4.2-2.838,7.063
		c0,2.776,0.95,5.09,2.846,6.938c1.901,1.845,4.276,2.759,7.133,2.759c2.862,0,5.253-0.938,7.17-2.814
		c1.92-1.882,2.881-4.229,2.881-7.025c0-2.726-0.961-5.025-2.881-6.891C44.335,4.426,41.976,3.495,39.188,3.495 M39.025-0.001
		c3.971,0,7.271,1.266,9.912,3.776c2.646,2.519,3.963,5.672,3.963,9.476c0,3.79-1.331,6.938-3.995,9.429
		c-2.669,2.482-6.027,3.73-10.083,3.73c-3.872,0-7.096-1.248-9.674-3.73c-2.583-2.492-3.869-5.608-3.869-9.354
		c0-3.852,1.296-7.03,3.896-9.548C31.77,1.265,35.055-0.001,39.025-0.001"/>
	<polygon fill="#444444" points="55.738,0.388 59.404,0.388 59.404,22.793 70.995,22.793 70.995,26.129 55.738,26.129 	"/>
	<polygon fill="#444444" points="73.287,0.388 76.952,0.388 76.952,22.793 88.541,22.793 88.541,26.129 73.287,26.129 	"/>
	<polygon fill="#444444" points="90.838,0.388 105.432,0.388 105.432,3.661 94.499,3.661 94.499,11.537 105.04,11.537 
		105.04,14.811 94.499,14.811 94.499,22.854 105.76,22.854 105.76,26.129 90.838,26.129 	"/>
	<path fill="#444444" d="M122.681,13.424h8.6v10.911c-3.165,1.379-6.297,2.075-9.409,2.075c-4.25,0-7.646-1.248-10.188-3.746
		c-2.546-2.483-3.815-5.564-3.815-9.212c0-3.853,1.317-7.058,3.96-9.616c2.629-2.559,5.937-3.837,9.907-3.837
		c1.443,0,2.816,0.154,4.123,0.47c1.293,0.303,2.935,0.878,4.921,1.688V5.93c-3.062-1.766-6.097-2.656-9.106-2.656
		c-2.804,0-5.168,0.959-7.09,2.875c-1.922,1.929-2.884,4.291-2.884,7.074c0,2.925,0.956,5.326,2.881,7.183
		c1.923,1.858,4.399,2.786,7.419,2.786c1.47,0,3.227-0.335,5.275-1.014l0.348-0.113V16.7h-4.938L122.681,13.424L122.681,13.424z"/>
	<polygon fill="#444444" points="135.165,0.388 149.755,0.388 149.755,3.661 138.831,3.661 138.831,11.537 149.37,11.537 
		149.37,14.811 138.831,14.811 138.831,22.854 150.09,22.854 150.09,26.129 135.165,26.129 	"/>
	<g>
		<path fill="#444444" d="M173.122,8.167c-1.411-1.344-3.205-2.028-5.314-2.028c-2.121,0-3.904,0.687-5.294,2.037
			c-1.395,1.345-2.102,3.072-2.102,5.129c0,2.013,0.702,3.701,2.086,5.035c1.382,1.333,3.127,2.01,5.197,2.01
			c2.163,0,3.989-0.677,5.406-2.01c1.435-1.326,2.161-3.041,2.161-5.074C175.262,11.236,174.539,9.521,173.122,8.167z
			 M171.348,16.688c-0.948,0.933-2.099,1.389-3.529,1.389c-1.406,0-2.581-0.464-3.508-1.36c-0.939-0.917-1.396-2.028-1.396-3.408
			c0-1.396,0.474-2.568,1.393-3.47c0.932-0.902,2.126-1.354,3.563-1.354c1.368,0,2.536,0.46,3.477,1.369
			c0.938,0.904,1.407,2.042,1.407,3.385C172.756,14.623,172.292,15.748,171.348,16.688z"/>
	</g>
	<g>
		<polygon fill="#444444" points="176.584,20.188 179.034,20.188 179.034,13.973 184.219,13.973 184.219,11.738 179.034,11.738 
			179.034,8.557 184.219,8.557 184.219,6.332 176.584,6.332 		"/>
		<polygon fill="#444444" points="199.516,22.793 199.516,0.388 195.848,0.388 195.848,26.129 211.102,26.129 211.102,22.793 		"/>
	</g>
	<rect x="213.455" y="0.388" fill="#444444" width="3.66" height="25.741"/>
	<path fill="#444444" d="M228.256,14.695h-3.473v8.158h3.655c2.016,0,3.39-0.154,4.107-0.474c0.723-0.307,1.3-0.797,1.731-1.458
		c0.445-0.664,0.664-1.372,0.664-2.137c0-0.788-0.229-1.516-0.693-2.157c-0.46-0.646-1.119-1.131-1.965-1.452
		C231.435,14.857,230.09,14.695,228.256,14.695 M227.98,3.661h-3.197v7.761h2.477c1.977,0,3.388-0.367,4.218-1.125
		c0.838-0.75,1.256-1.727,1.256-2.914C232.73,4.902,231.146,3.661,227.98,3.661 M229.862,26.129h-8.733V0.395h6.758
		c2.137,0,3.797,0.28,5,0.854c1.188,0.568,2.104,1.357,2.723,2.362c0.634,0.997,0.941,2.163,0.941,3.475
		c0,2.539-1.313,4.354-3.938,5.445c1.877,0.354,3.376,1.131,4.492,2.32c1.105,1.188,1.668,2.604,1.668,4.269
		c0,1.312-0.337,2.49-1.014,3.516c-0.676,1.039-1.675,1.874-2.98,2.524C233.467,25.808,231.828,26.129,229.862,26.129"/>
	<polygon fill="#444444" points="241.426,0.388 256.014,0.388 256.014,3.661 245.087,3.661 245.087,11.537 255.626,11.537 
		255.626,14.811 245.087,14.811 245.087,22.854 256.35,22.854 256.35,26.129 241.426,26.129 	"/>
	<path fill="#444444" d="M264.221,3.495h-1.108v8.155h1.406c1.855,0,3.138-0.161,3.834-0.487c0.686-0.316,1.224-0.799,1.614-1.449
		c0.394-0.641,0.584-1.384,0.584-2.208c0-0.812-0.225-1.549-0.65-2.21c-0.418-0.664-1.031-1.125-1.812-1.396
		C267.311,3.635,266.023,3.495,264.221,3.495 M259.45,26.129V0.395h6.439c2.6,0,4.667,0.639,6.195,1.93
		c1.521,1.287,2.298,3.034,2.298,5.229c0,1.507-0.384,2.798-1.144,3.892c-0.742,1.092-1.826,1.906-3.229,2.447
		c0.821,0.537,1.633,1.275,2.416,2.213c0.774,0.932,1.892,2.562,3.311,4.882c0.898,1.46,1.617,2.563,2.158,3.303l1.361,1.842h-4.388
		l-1.127-1.695c-0.028-0.063-0.102-0.168-0.209-0.313l-0.723-1.009l-1.141-1.882l-1.237-2.013c-0.761-1.063-1.448-1.905-2.083-2.527
		c-0.637-0.623-1.199-1.079-1.716-1.349c-0.507-0.282-1.357-0.417-2.565-0.417h-0.959v11.205L259.45,26.129L259.45,26.129z"/>
	<path fill="#444444" d="M294.831,15.199l-4.192-9.319l-3.854,9.319H294.831z M289.353,0.219h2.589l11.543,25.91h-3.771
		l-3.412-7.654h-10.947l-3.221,7.654h-3.791L289.353,0.219z"/>
	<polygon fill="#444444" points="305.396,0.388 309.062,0.388 309.062,22.793 320.656,22.793 320.656,26.129 305.396,26.129 	"/>
	<path fill="#444444" d="M347.262,15.199L343.07,5.88l-3.848,9.319H347.262z M341.79,0.219h2.578l11.554,25.91h-3.765l-3.425-7.654
		h-10.945l-3.221,7.654h-3.778L341.79,0.219z"/>
	<path fill="#444444" d="M362.704,3.495h-1.098v8.155h1.396c1.861,0,3.146-0.161,3.837-0.487c0.696-0.316,1.234-0.799,1.618-1.449
		c0.393-0.641,0.578-1.384,0.578-2.208c0-0.812-0.223-1.549-0.645-2.21c-0.433-0.664-1.037-1.125-1.816-1.396
		C365.808,3.635,364.518,3.495,362.704,3.495 M357.946,26.129V0.395h6.435c2.6,0,4.67,0.639,6.19,1.93
		c1.522,1.287,2.292,3.034,2.292,5.229c0,1.507-0.378,2.798-1.127,3.892c-0.75,1.092-1.824,1.906-3.24,2.447
		c0.835,0.537,1.633,1.275,2.423,2.213c0.784,0.932,1.894,2.562,3.31,4.882c0.896,1.46,1.615,2.563,2.158,3.303l1.368,1.842h-4.392
		l-1.116-1.695c-0.046-0.063-0.118-0.168-0.228-0.313l-0.724-1.009l-1.141-1.882l-1.229-2.013c-0.761-1.063-1.457-1.905-2.089-2.527
		c-0.632-0.623-1.204-1.079-1.705-1.349c-0.515-0.282-1.366-0.417-2.571-0.417h-0.955v11.205L357.946,26.129L357.946,26.129z"/>
	<polygon fill="#444444" points="374.119,0.388 395.649,0.388 395.649,3.661 386.649,3.661 386.649,26.129 382.936,26.129 
		382.936,3.661 374.119,3.661 	"/>
	<path fill="#444444" d="M404.498,15.326l-2.798-1.708c-1.754-1.071-2.999-2.128-3.737-3.166c-0.742-1.043-1.119-2.244-1.119-3.597
		c0-2.034,0.701-3.684,2.117-4.955c1.398-1.272,3.227-1.901,5.46-1.901c2.147,0,4.12,0.617,5.906,1.842v4.163
		c-1.845-1.779-3.842-2.683-5.976-2.683c-1.205,0-2.19,0.287-2.965,0.843c-0.773,0.549-1.156,1.264-1.156,2.122
		c0,0.769,0.289,1.479,0.861,2.155c0.576,0.669,1.492,1.38,2.742,2.122l2.801,1.688c3.127,1.889,4.688,4.278,4.688,7.184
		c0,2.068-0.688,3.746-2.065,5.028c-1.386,1.294-3.18,1.944-5.375,1.944c-2.53,0-4.842-0.81-6.93-2.404v-4.66
		c1.989,2.562,4.294,3.843,6.899,3.843c1.151,0,2.107-0.312,2.872-0.972c0.772-0.646,1.16-1.454,1.16-2.424
		C407.891,18.219,406.758,16.725,404.498,15.326"/>
</g>
</svg>
