<svg width="349" height="168" viewBox="0 0 349 168" fill="none" xmlns="http://www.w3.org/2000/svg">
<g filter="url(#filter0_i)">
<path d="M174.5 167.759C270.874 167.759 349 154.413 349 137.949C349 121.485 270.874 108.138 174.5 108.138C78.1263 108.138 0 121.485 0 137.949C0 154.413 78.1263 167.759 174.5 167.759Z" fill="black"/>
</g>
<path d="M347.5 137.949C347.5 139.367 346.661 140.995 344.493 142.805C342.34 144.603 339.074 146.405 334.725 148.161C326.041 151.669 313.386 154.859 297.638 157.549C266.166 162.926 222.629 166.259 174.5 166.259C126.371 166.259 82.8344 162.926 51.3625 157.549C35.6143 154.859 22.9588 151.669 14.2748 148.161C9.92584 146.405 6.65982 144.603 4.50652 142.805C2.33862 140.995 1.5 139.367 1.5 137.949C1.5 136.53 2.33862 134.902 4.50652 133.092C6.65982 131.295 9.92584 129.493 14.2748 127.736C22.9588 124.229 35.6143 121.038 51.3625 118.348C82.8344 112.972 126.371 109.638 174.5 109.638C222.629 109.638 266.166 112.972 297.638 118.348C313.386 121.038 326.041 124.229 334.725 127.736C339.074 129.493 342.34 131.295 344.493 133.092C346.661 134.902 347.5 136.53 347.5 137.949Z" stroke="black" stroke-width="3"/>
<mask id="mask0" mask-type="alpha" maskUnits="userSpaceOnUse" x="0" y="0" width="349" height="165">
<path d="M174.5 164.623C270.874 164.623 349 148.899 349 129.503C349 110.107 270.874 0 174.5 0C78.1263 0 0 110.107 0 129.503C0 148.899 78.1263 164.623 174.5 164.623Z" fill="black"/>
</mask>
<g mask="url(#mask0)">
<g clip-path="url(#clip0)">
<path d="M238.22 79C232.046 83.15 220.311 86.9657 210.264 86.9657C209.929 85.0982 210.669 82.1471 210.449 79.3574C210.333 79.3574 209.813 79.4381 209.721 79.3574C204.513 82.4097 198.794 84.4954 192.84 85.5132C187.857 86.4354 183.741 86.4469 179.417 87.6804C176.213 88.6 173.059 89.689 169.971 90.9428C169.292 91.388 168.562 91.7517 167.797 92.0264C164.965 92.4068 161.774 90.1243 159.08 89.7208C154.131 88.8908 148.212 89.7208 143.113 88.8217C138.014 87.9225 135.02 85.1097 131.493 82.6658C131.262 85.6169 132.881 88.1646 133.494 91.1733C131.019 91.8074 128.291 92.0149 125.874 92.6143C124.082 93.0524 122.047 94.3781 120.244 94.6086C119.689 94.6778 119.562 94.2974 119.157 94.4242C117.839 94.8392 116.371 96.4876 114.625 96.7297C112.312 97.0986 110.173 95.9804 108.081 95.8306C96.7387 94.9775 86.8071 98.6664 82.1361 104.695C72.8867 116.581 75.199 133.227 87.2117 140.708C90.0213 142.46 93.5014 143.014 96.8312 144.328C96.1509 147.283 94.6387 149.982 92.4724 152.109C92.033 152.536 91.4318 152.72 91.0271 153.193C90.8075 153.446 90.7034 153.792 90.4837 154.103C92.6458 154.265 96.1606 154.103 97.4208 155.36C95.5131 162.576 93.9523 160.075 87.443 162.058C71.3374 166.922 56.9314 176.975 51.6823 192.641C50.5261 196.099 50.4452 199.362 49.8787 203.5C49.0809 209.264 48.5606 216.918 49.8787 222.867C50.7111 221.091 51.9482 219.408 53.4975 218.878C53.4975 230.152 52.2373 240.562 55.4977 250.188C56.492 247.617 57.4748 244.7 59.3131 242.948C59.949 243.501 59.8912 243.052 60.2149 244.032C63.2672 253.069 64.3309 259.882 69.4644 266.834C74.5978 273.785 82.1824 276.655 84.7028 286.558H85.2462C85.8359 284.656 86.0902 282.73 86.518 280.794C86.7596 280.828 87.0049 280.828 87.2464 280.794C95.8715 288.644 105.283 295.976 116.648 301.06C122.429 303.653 128.672 305.233 134.615 307.757C142.906 311.363 150.968 315.47 158.756 320.057C162.78 322.363 167.011 324.334 169.647 328.023C171.671 325.545 173.324 322.755 175.266 320.242C181.186 312.61 189.568 307.158 198.321 302.328C199.939 301.428 204.194 298.431 205.94 298.351C208.16 298.224 206.46 301.659 206.31 302.512C206.31 302.754 206.183 303.446 206.483 303.411C206.784 303.377 207.582 302.258 207.94 301.97C212.125 299.123 216.773 296.806 221.19 294.362C223.71 292.979 226.15 292.425 228.994 291.284C233.143 289.569 237.203 287.645 241.157 285.52C250.094 280.805 258.5 273.531 265.113 266.338C267.564 263.663 269.31 259.871 272.05 257.473C272.282 257.279 272.526 257.098 272.779 256.931C274.663 258.153 274.594 260.562 274.964 263.26C276.999 261.323 277.785 258.303 279.138 255.663C283.59 247.302 286.303 238.131 287.115 228.7C287.573 225.161 287.755 221.592 287.659 218.025C287.476 217.13 287.418 216.215 287.485 215.304C287.82 213.898 289.162 214.636 289.798 215.304C290.165 215.726 290.594 216.092 291.069 216.388C291.037 214.372 290.762 212.367 290.248 210.417C287.414 197.861 281.557 186.181 273.183 176.387C270.316 173.136 266.165 171.049 263.02 168.064C263.252 167.891 263.101 167.326 263.39 167.164C265.206 166.15 267.888 166.012 269.553 165.17C265.529 163.406 260.87 157.804 259.575 153.412C261.575 152.905 269.472 153.735 266.292 151.418C263.98 149.688 259.251 143.936 261.032 140.201C264.671 140.337 268.304 139.785 271.738 138.576C275.369 137.18 278.613 134.94 281.201 132.043C283.789 129.146 285.646 125.675 286.618 121.918C291.451 105.318 278.825 88.8332 262.338 90.0667C259.542 90.2672 256.791 90.881 254.176 91.888C253.089 92.3261 251.412 93.9976 250.002 93.8708C249.1 93.7901 247.689 92.4644 246.915 92.061C244.226 90.5119 241.275 89.4686 238.209 88.9831C237.85 86.6775 240.197 83.2192 238.926 79.9337C238.798 79.5879 238.371 79.2882 238.22 79Z" fill="black"/>
<path d="M231.11 86.7812C231.792 89.7208 229.954 91.5076 228.798 93.6979C234.567 92.4258 240.601 93.1961 245.863 95.8767C247.019 96.5107 250.256 99.1045 251.308 99.335C252.36 99.5656 256.291 96.3954 257.482 95.8767C261.232 94.3467 265.377 94.0656 269.3 95.0751C273.223 96.0847 276.714 98.3309 279.253 101.479V101.848C280.143 104.407 282.433 106.793 282.884 110.171C284.641 123.059 278.444 131.786 268.732 133.872C266.512 134.356 263.541 134.967 260.928 134.241C258.904 133.665 257.922 130.045 257.656 127.728C263.437 127.082 267.264 126.575 269.634 122.656C271.357 119.831 267.61 122.759 266.003 123.025C260.407 123.901 256.164 120.465 251.308 120.846C252.118 122.645 252.726 124.528 253.124 126.46C254.21 130.714 255.436 135.14 256.754 139.14C257.61 141.757 258.384 144.063 259.066 146.553C255.702 146.818 253.898 145.907 251.447 144.927C252.962 148.178 253.944 151.406 255.251 155.06C256.141 157.504 257.633 159.602 258.338 162.3C254.673 163.141 251.967 162.427 248.718 161.389C248.736 161.631 248.736 161.874 248.718 162.115C250.43 163.695 251.667 165.873 253.436 167.36C256.523 169.954 260.222 171.799 263.425 174.277C270.073 179.58 275.579 186.167 279.612 193.644C280.698 195.638 283.23 199.131 283.415 201.425C283.577 203.154 280.34 202.174 279.242 202.14C280.493 206.079 281.466 210.1 282.155 214.175C283.751 226.682 280.213 237.864 277.438 246.925C277.069 247.028 276.706 247.151 276.351 247.294C275.195 245.622 274.455 244.331 272.362 243.49C272.362 247.974 269.484 250.649 267.645 253.45C260.512 264.274 250.557 272.378 239.145 278.961C234.613 281.578 229.248 282.996 224.624 285.29C221.502 286.846 218.843 289.901 215.189 290.719C214.704 288.621 214.577 285.831 213.189 284.575C210.519 287.36 207.605 289.902 204.483 292.172C196.228 297.555 187.013 301.924 178.885 307.365C175.656 309.524 172.566 311.884 169.636 314.432C169.092 314.904 168.41 316.242 167.636 316.415C167.127 316.53 149.634 306.489 147.125 305.383C135.633 300.23 123.331 297.071 111.734 291.987C101.745 287.595 88.4142 274.35 83.6045 264.666C83.2114 265.923 82.7142 268.724 82.1592 270.096C79.9509 269.312 78.9682 267.71 77.6154 266.107C70.8518 258.096 66.6086 250.441 64.5506 237.703C64.3887 236.7 64.0535 230.844 64.1922 232.815C63.9725 231.19 63.9147 230.671 63.8222 229.195C62.0995 230.44 60.9318 232.861 58.92 233.172C57.6713 223.95 59.0472 210.117 62.5504 204.353C60.689 204.768 59.475 205.909 57.6598 206.716C56.3533 203.627 57.8795 198.243 58.7466 195.131C62.8973 180.145 75.9274 168.502 91.5937 165.274C93.2354 164.928 99.5135 164.386 100.126 163.464C100.739 162.542 100.542 161.458 100.843 160.202C101.872 156.144 103.549 151.348 104.843 147.36C104.088 147.506 103.354 147.747 102.658 148.074C101.502 148.536 100.496 148.732 100.67 146.991C100.774 145.942 101.641 144.87 101.941 143.913C103.098 140.063 104.774 136.57 105.93 132.881C107.584 127.624 107.78 122.506 108.832 116.592C109.449 114.087 109.936 111.551 110.289 108.995C107.796 109.039 105.304 108.858 102.843 108.453C92.8308 107.301 88.0673 110.759 86.5065 118.217C87.906 116.054 90.0272 114.454 92.4955 113.699C93.2081 113.514 93.9471 113.452 94.6807 113.514C93.7652 114.882 92.9905 116.338 92.3683 117.86C91.9983 119.094 91.9174 124.143 92.9117 122.022C93.2123 121.365 93.721 120.512 93.9985 119.854C94.3619 119.016 94.8533 118.238 95.4553 117.549C96.5871 116.028 97.9999 114.737 99.6175 113.745C103.491 111.439 104.138 113.41 103.803 117.906C103.26 125.192 98.4729 132.766 89.8247 128.765C90.4921 129.632 91.3666 130.317 92.3683 130.76C94.6532 132.345 97.3901 133.154 100.173 133.065C100.404 134.034 99.7794 139.21 98.1723 139.578C96.3109 139.982 93.5476 138.345 92.3914 137.769C91.0742 137.266 89.7985 136.66 88.576 135.959C80.8874 130.356 78.6676 116.811 84.7606 107.912C89.0732 101.617 97.1086 98.0439 108 98.8624C110.671 99.0583 114.336 101.053 116.521 100.672C117.978 100.419 119.689 99.1045 121.065 98.6779C126.522 96.9718 134.846 94.378 141.934 96.1418C141.231 94.7617 140.684 93.308 140.304 91.8073C145.217 91.8073 161.115 93.5826 163.901 95.9574L164.075 96.1418C164.618 96.5568 164.445 99.7961 164.618 100.488C165.025 101.582 165.577 102.618 166.26 103.566C166.634 102.059 167.181 100.601 167.89 99.2197C170.561 95.5654 180.157 91.5422 185.857 90.8967C188.273 90.62 190.008 91.1042 192.204 90.7122C196.378 89.9744 200.529 88.4758 204.552 87.4614C204.983 89.6556 204.525 91.9305 203.281 93.7901C203.419 93.7901 203.281 94.2974 203.824 94.159C205.431 93.7325 207.871 92.3953 209.813 91.9803C214.299 91.0004 219.328 90.7583 223.606 89.6747C226.023 89.0061 228.439 87.5651 231.11 86.7812Z" fill="#A5885E"/>
<path d="M197.904 117.18C188.805 117.18 179.14 127.29 177.209 134.552C175.559 140.349 174.467 146.29 173.948 152.294C173.729 155.141 174.7 158.772 173.948 161.516C173.613 162.726 170.202 163.475 169.231 164.236C168.296 165.095 167.551 166.14 167.046 167.303C168.717 166.467 170.489 165.847 172.318 165.458C172.133 167.234 171.046 168.017 170.33 169.804C172.307 168.997 174.156 167.499 176.11 166.911C187.672 163.176 213.594 165.228 222.577 169.216C225.005 170.311 226.555 172.26 228.566 173.747C227.584 170.542 225.433 168.709 223.294 166.68L223.664 165.781C224.011 165.781 224.936 165.965 224.936 165.965C227.582 166.27 230.061 167.409 232.012 169.216C229.514 163.522 224.3 163.199 218.577 160.709C218.565 142.322 216.253 117.18 197.904 117.18Z" fill="black"/>
<path d="M201.893 121.526C203.049 121.722 203.049 122.344 203.35 122.978C193.684 126.886 187.799 138.161 185.926 149.757C185.51 152.317 185.001 160.132 183.926 161.885C183.498 162.576 181.047 162.588 180.458 162.599C179.847 162.678 179.227 162.619 178.642 162.427C177.59 161.839 178.215 158.507 178.099 156.997C177.667 149.179 178.848 141.356 181.568 134.011C181.661 133.641 181.781 133.279 181.926 132.927C184.967 127.417 192.031 119.901 201.893 121.526Z" fill="white"/>
<path d="M198.991 142.703C200.466 143.083 201.754 143.979 202.622 145.227C200.76 149.17 198.876 153.527 196.633 157.354C195.106 157.228 193.765 157.17 192.089 157.17C191.06 154.588 194.933 143.74 196.818 142.875C197.515 142.63 198.264 142.57 198.991 142.703Z" fill="white"/>
<path d="M134.014 120.5C134.014 120.5 132.765 120.5 132.569 120.5C130.349 120.627 127.643 122.148 126.025 123.209C118.614 128.062 113.954 137.953 112.058 148.178C111.26 152.478 111.48 157.181 110.971 161.758C105.329 163.187 102.207 164.063 99.3516 168.087C101.664 167.407 102.739 165.781 105.133 165.193C108.601 164.421 105.537 167.395 104.959 168.271C104.317 169.179 103.767 170.148 103.317 171.165C102.832 172.375 102.473 173.136 102.046 174.427C104.855 172.121 106.67 168.778 110.22 167.188C114.336 165.32 117.955 164.813 124.186 165.378C129.239 165.827 135.078 166.15 139.217 167.545C138.546 168.836 137.991 169.908 137.401 171.349C137.286 171.649 136.245 173.055 137.401 172.974C138.558 172.894 140.87 169.897 142.119 169.17C143.945 168.075 145.98 167.868 148.293 167.188C146.165 162.876 148.998 157.965 149.38 153.608C150.536 141.146 147.645 126.541 139.76 122.125C137.926 121.331 135.993 120.785 134.014 120.5Z" fill="black"/>
<path d="M136.014 123.336C136.962 123.509 137.402 124.35 138.003 124.777C132.935 127.709 128.98 132.227 126.753 137.63C124.493 143.09 122.909 148.803 122.036 154.645C121.898 157.076 121.597 159.494 121.134 161.885C119.617 161.93 118.099 161.868 116.59 161.7C113.654 161.285 114.567 156.57 114.775 153.735C115.781 140.374 119.643 131.117 128.568 125.687C130.291 124.638 132.788 122.725 136.014 123.336Z" fill="white"/>
<path d="M134.014 143.417C135.078 143.613 137.078 145.469 138.003 146.138C136.847 150.576 134.835 154.011 133.471 158.622C131.947 158.722 130.416 158.602 128.927 158.265C126.822 157.504 131.32 142.91 134.014 143.417Z" fill="white"/>
<path d="M203.893 105.963C199.381 105.527 194.826 105.991 190.495 107.327C186.164 108.662 182.143 110.844 178.666 113.745C172.885 118.356 174.156 119.439 176.122 127.14C178.931 124.604 180.747 121.157 183.741 118.805C192.863 111.785 205.385 110.448 214.241 118.805C216.188 120.487 217.951 122.369 219.502 124.419C220.658 126.275 221.56 128.535 223.132 130.033C222.508 124.454 221.71 120.327 219.502 116.454C218.704 115.047 217.189 114.044 216.23 112.834C213.328 109.226 209.963 106.402 203.893 105.963Z" fill="black"/>
<path d="M136.557 109.399C129.447 108.684 124.799 111.912 121.134 114.828C117.469 117.745 114.844 122.725 113.33 127.855C120.648 123.094 126.048 113.549 138.916 117.007C139.854 117.098 140.772 117.34 141.633 117.722C144.836 119.716 146.05 123.97 149.264 125.687C150.247 124.085 152.409 120.016 151.807 117.364C151.623 116.581 150.339 115.589 149.807 115.059C146.882 111.831 142.061 109.952 136.557 109.399Z" fill="black"/>
<path d="M268.859 103.208C262.153 102.229 260.477 108.972 254.523 105.929C254.595 108.685 255.022 111.42 255.794 114.068C256.951 113.272 258.974 110.932 260.523 110.817C261.309 110.748 264.778 116.223 265.957 117.145C265.68 114.609 264.72 109.433 266.686 107.923C268.998 106.113 274.039 110.529 274.86 111.716C275.561 113.083 276.048 114.548 276.305 116.062C276.597 115.479 276.841 114.874 277.033 114.252C277.256 112.35 276.806 110.43 275.762 108.822C274.455 106.436 272.027 103.716 268.859 103.208Z" fill="black"/>
</g>
</g>
<defs>
<filter id="filter0_i" x="0" y="108.138" width="349" height="59.6208" filterUnits="userSpaceOnUse" color-interpolation-filters="sRGB">
<feFlood flood-opacity="0" result="BackgroundImageFix"/>
<feBlend mode="normal" in="SourceGraphic" in2="BackgroundImageFix" result="shape"/>
<feColorMatrix in="SourceAlpha" type="matrix" values="0 0 0 0 0 0 0 0 0 0 0 0 0 0 0 0 0 0 127 0" result="hardAlpha"/>
<feOffset dy="13"/>
<feComposite in2="hardAlpha" operator="arithmetic" k2="-1" k3="1"/>
<feColorMatrix type="matrix" values="0 0 0 0 1 0 0 0 0 1 0 0 0 0 1 0 0 0 0.25 0"/>
<feBlend mode="normal" in2="shape" result="effect1_innerShadow"/>
</filter>
<clipPath id="clip0">
<rect width="242" height="249" fill="white" transform="translate(49 79)"/>
</clipPath>
</defs>
</svg>
