<svg width="349" height="174" viewBox="0 0 349 174" fill="none" xmlns="http://www.w3.org/2000/svg">
<path d="M174.5 173.759C270.874 173.759 349 160.413 349 143.949C349 127.485 270.874 114.138 174.5 114.138C78.1263 114.138 0 127.485 0 143.949C0 160.413 78.1263 173.759 174.5 173.759Z" fill="black"/>
<mask id="mask0" mask-type="alpha" maskUnits="userSpaceOnUse" x="0" y="0" width="349" height="165">
<path d="M174.5 164.623C270.874 164.623 349 148.899 349 129.503C349 110.107 270.874 0 174.5 0C78.1263 0 0 110.107 0 129.503C0 148.899 78.1263 164.623 174.5 164.623Z" fill="black"/>
</mask>
<g mask="url(#mask0)">
<g clip-path="url(#clip0)">
<path d="M238.22 85C232.046 89.15 220.311 92.9657 210.264 92.9657C209.929 91.0982 210.669 88.1471 210.449 85.3574C210.333 85.3574 209.813 85.4381 209.721 85.3574C204.513 88.4097 198.794 90.4954 192.84 91.5132C187.857 92.4354 183.741 92.4469 179.417 93.6804C176.213 94.6 173.059 95.689 169.971 96.9428C169.292 97.388 168.562 97.7517 167.797 98.0264C164.965 98.4068 161.774 96.1243 159.08 95.7208C154.131 94.8908 148.212 95.7208 143.113 94.8217C138.014 93.9225 135.02 91.1097 131.493 88.6658C131.262 91.6169 132.881 94.1646 133.494 97.1733C131.019 97.8074 128.291 98.0149 125.874 98.6143C124.082 99.0524 122.047 100.378 120.244 100.609C119.689 100.678 119.562 100.297 119.157 100.424C117.839 100.839 116.371 102.488 114.625 102.73C112.312 103.099 110.173 101.98 108.081 101.831C96.7387 100.978 86.8071 104.666 82.1361 110.695C72.8867 122.581 75.199 139.227 87.2117 146.708C90.0213 148.46 93.5014 149.014 96.8312 150.328C96.1509 153.283 94.6387 155.982 92.4724 158.109C92.033 158.536 91.4318 158.72 91.0271 159.193C90.8075 159.446 90.7034 159.792 90.4837 160.103C92.6458 160.265 96.1606 160.103 97.4208 161.36C95.5131 168.576 93.9523 166.075 87.443 168.058C71.3374 172.922 56.9314 182.975 51.6823 198.641C50.5261 202.099 50.4452 205.362 49.8787 209.5C49.0809 215.264 48.5606 222.918 49.8787 228.867C50.7111 227.091 51.9482 225.408 53.4975 224.878C53.4975 236.152 52.2373 246.562 55.4977 256.188C56.492 253.617 57.4748 250.7 59.3131 248.948C59.949 249.501 59.8912 249.052 60.2149 250.032C63.2672 259.069 64.3309 265.882 69.4644 272.834C74.5978 279.785 82.1824 282.655 84.7028 292.558H85.2462C85.8359 290.656 86.0902 288.73 86.518 286.794C86.7596 286.828 87.0049 286.828 87.2464 286.794C95.8715 294.644 105.283 301.976 116.648 307.06C122.429 309.653 128.672 311.233 134.615 313.757C142.906 317.363 150.968 321.47 158.756 326.057C162.78 328.363 167.011 330.334 169.647 334.023C171.671 331.545 173.324 328.755 175.266 326.242C181.186 318.61 189.568 313.158 198.321 308.328C199.939 307.428 204.194 304.431 205.94 304.351C208.16 304.224 206.46 307.659 206.31 308.512C206.31 308.754 206.183 309.446 206.483 309.411C206.784 309.377 207.582 308.258 207.94 307.97C212.125 305.123 216.773 302.806 221.19 300.362C223.71 298.979 226.15 298.425 228.994 297.284C233.143 295.569 237.203 293.645 241.157 291.52C250.094 286.805 258.5 279.531 265.113 272.338C267.564 269.663 269.31 265.871 272.05 263.473C272.282 263.279 272.526 263.098 272.779 262.931C274.663 264.153 274.594 266.562 274.964 269.26C276.999 267.323 277.785 264.303 279.138 261.663C283.59 253.302 286.303 244.131 287.115 234.7C287.573 231.161 287.755 227.592 287.659 224.025C287.476 223.13 287.418 222.215 287.485 221.304C287.82 219.898 289.162 220.636 289.798 221.304C290.165 221.726 290.594 222.092 291.069 222.388C291.037 220.372 290.762 218.367 290.248 216.417C287.414 203.861 281.557 192.181 273.183 182.387C270.316 179.136 266.165 177.049 263.02 174.064C263.252 173.891 263.101 173.326 263.39 173.164C265.206 172.15 267.888 172.012 269.553 171.17C265.529 169.406 260.87 163.804 259.575 159.412C261.575 158.905 269.472 159.735 266.292 157.418C263.98 155.688 259.251 149.936 261.032 146.201C264.671 146.337 268.304 145.785 271.738 144.576C275.369 143.18 278.613 140.94 281.201 138.043C283.789 135.146 285.646 131.675 286.618 127.918C291.451 111.318 278.825 94.8332 262.338 96.0667C259.542 96.2672 256.791 96.881 254.176 97.888C253.089 98.3261 251.412 99.9976 250.002 99.8708C249.1 99.7901 247.689 98.4644 246.915 98.061C244.226 96.5119 241.275 95.4686 238.209 94.9831C237.85 92.6775 240.197 89.2192 238.926 85.9337C238.798 85.5879 238.371 85.2882 238.22 85Z" fill="black"/>
<path d="M231.11 92.7812C231.792 95.7208 229.954 97.5076 228.798 99.6979C234.567 98.4258 240.601 99.1961 245.863 101.877C247.019 102.511 250.256 105.104 251.308 105.335C252.36 105.566 256.291 102.395 257.482 101.877C261.232 100.347 265.377 100.066 269.3 101.075C273.223 102.085 276.714 104.331 279.253 107.479V107.848C280.143 110.407 282.433 112.793 282.884 116.171C284.641 129.059 278.444 137.786 268.732 139.872C266.512 140.356 263.541 140.967 260.928 140.241C258.904 139.665 257.922 136.045 257.656 133.728C263.437 133.082 267.264 132.575 269.634 128.656C271.357 125.831 267.61 128.759 266.003 129.025C260.407 129.901 256.164 126.465 251.308 126.846C252.118 128.645 252.726 130.528 253.124 132.46C254.21 136.714 255.436 141.14 256.754 145.14C257.61 147.757 258.384 150.063 259.066 152.553C255.702 152.818 253.898 151.907 251.447 150.927C252.962 154.178 253.944 157.406 255.251 161.06C256.141 163.504 257.633 165.602 258.338 168.3C254.673 169.141 251.967 168.427 248.718 167.389C248.736 167.631 248.736 167.874 248.718 168.115C250.43 169.695 251.667 171.873 253.436 173.36C256.523 175.954 260.222 177.799 263.425 180.277C270.073 185.58 275.579 192.167 279.612 199.644C280.698 201.638 283.23 205.131 283.415 207.425C283.577 209.154 280.34 208.174 279.242 208.14C280.493 212.079 281.466 216.1 282.155 220.175C283.751 232.682 280.213 243.864 277.438 252.925C277.069 253.028 276.706 253.151 276.351 253.294C275.195 251.622 274.455 250.331 272.362 249.49C272.362 253.974 269.484 256.649 267.645 259.45C260.512 270.274 250.557 278.378 239.145 284.961C234.613 287.578 229.248 288.996 224.624 291.29C221.502 292.846 218.843 295.901 215.189 296.719C214.704 294.621 214.577 291.831 213.189 290.575C210.519 293.36 207.605 295.902 204.483 298.172C196.228 303.555 187.013 307.924 178.885 313.365C175.656 315.524 172.566 317.884 169.636 320.432C169.092 320.904 168.41 322.242 167.636 322.415C167.127 322.53 149.634 312.489 147.125 311.383C135.633 306.23 123.331 303.071 111.734 297.987C101.745 293.595 88.4142 280.35 83.6045 270.666C83.2114 271.923 82.7142 274.724 82.1592 276.096C79.9509 275.312 78.9682 273.71 77.6154 272.107C70.8518 264.096 66.6086 256.441 64.5506 243.703C64.3887 242.7 64.0535 236.844 64.1922 238.815C63.9725 237.19 63.9147 236.671 63.8222 235.195C62.0995 236.44 60.9318 238.861 58.92 239.172C57.6713 229.95 59.0472 216.117 62.5504 210.353C60.689 210.768 59.475 211.909 57.6598 212.716C56.3533 209.627 57.8795 204.243 58.7466 201.131C62.8973 186.145 75.9274 174.502 91.5937 171.274C93.2354 170.928 99.5135 170.386 100.126 169.464C100.739 168.542 100.542 167.458 100.843 166.202C101.872 162.144 103.549 157.348 104.843 153.36C104.088 153.506 103.354 153.747 102.658 154.074C101.502 154.536 100.496 154.732 100.67 152.991C100.774 151.942 101.641 150.87 101.941 149.913C103.098 146.063 104.774 142.57 105.93 138.881C107.584 133.624 107.78 128.506 108.832 122.592C109.449 120.087 109.936 117.551 110.289 114.995C107.796 115.039 105.304 114.858 102.843 114.453C92.8308 113.301 88.0673 116.759 86.5065 124.217C87.906 122.054 90.0272 120.454 92.4955 119.699C93.2081 119.514 93.9471 119.452 94.6807 119.514C93.7652 120.882 92.9905 122.338 92.3683 123.86C91.9983 125.094 91.9174 130.143 92.9117 128.022C93.2123 127.365 93.721 126.512 93.9985 125.854C94.3619 125.016 94.8533 124.238 95.4553 123.549C96.5871 122.028 97.9999 120.737 99.6175 119.745C103.491 117.439 104.138 119.41 103.803 123.906C103.26 131.192 98.4729 138.766 89.8247 134.765C90.4921 135.632 91.3666 136.317 92.3683 136.76C94.6532 138.345 97.3901 139.154 100.173 139.065C100.404 140.034 99.7794 145.21 98.1723 145.578C96.3109 145.982 93.5476 144.345 92.3914 143.769C91.0742 143.266 89.7985 142.66 88.576 141.959C80.8874 136.356 78.6676 122.811 84.7606 113.912C89.0732 107.617 97.1086 104.044 108 104.862C110.671 105.058 114.336 107.053 116.521 106.672C117.978 106.419 119.689 105.104 121.065 104.678C126.522 102.972 134.846 100.378 141.934 102.142C141.231 100.762 140.684 99.308 140.304 97.8073C145.217 97.8073 161.115 99.5826 163.901 101.957L164.075 102.142C164.618 102.557 164.445 105.796 164.618 106.488C165.025 107.582 165.577 108.618 166.26 109.566C166.634 108.059 167.181 106.601 167.89 105.22C170.561 101.565 180.157 97.5422 185.857 96.8967C188.273 96.62 190.008 97.1042 192.204 96.7122C196.378 95.9744 200.529 94.4758 204.552 93.4614C204.983 95.6556 204.525 97.9305 203.281 99.7901C203.419 99.7901 203.281 100.297 203.824 100.159C205.431 99.7325 207.871 98.3953 209.813 97.9803C214.299 97.0004 219.328 96.7583 223.606 95.6747C226.023 95.0061 228.439 93.5651 231.11 92.7812Z" fill="#A5885E"/>
<path d="M197.904 123.18C188.805 123.18 179.14 133.29 177.209 140.552C175.559 146.349 174.467 152.29 173.948 158.294C173.729 161.141 174.7 164.772 173.948 167.516C173.613 168.726 170.202 169.475 169.231 170.236C168.296 171.095 167.551 172.14 167.046 173.303C168.717 172.467 170.489 171.847 172.318 171.458C172.133 173.234 171.046 174.017 170.33 175.804C172.307 174.997 174.156 173.499 176.11 172.911C187.672 169.176 213.594 171.228 222.577 175.216C225.005 176.311 226.555 178.26 228.566 179.747C227.584 176.542 225.433 174.709 223.294 172.68L223.664 171.781C224.011 171.781 224.936 171.965 224.936 171.965C227.582 172.27 230.061 173.409 232.012 175.216C229.514 169.522 224.3 169.199 218.577 166.709C218.565 148.322 216.253 123.18 197.904 123.18Z" fill="black"/>
<path d="M201.893 127.526C203.049 127.722 203.049 128.344 203.35 128.978C193.684 132.886 187.799 144.161 185.926 155.757C185.51 158.317 185.001 166.132 183.926 167.885C183.498 168.576 181.047 168.588 180.458 168.599C179.847 168.678 179.227 168.619 178.642 168.427C177.59 167.839 178.215 164.507 178.099 162.997C177.667 155.179 178.848 147.356 181.568 140.011C181.661 139.641 181.781 139.279 181.926 138.927C184.967 133.417 192.031 125.901 201.893 127.526Z" fill="#E5E5E5"/>
<path d="M198.991 148.703C200.466 149.083 201.754 149.979 202.622 151.227C200.76 155.17 198.876 159.527 196.633 163.354C195.106 163.228 193.765 163.17 192.089 163.17C191.06 160.588 194.933 149.74 196.818 148.875C197.515 148.63 198.264 148.57 198.991 148.703Z" fill="#E5E5E5"/>
<path d="M134.014 126.5C134.014 126.5 132.765 126.5 132.569 126.5C130.349 126.627 127.643 128.148 126.025 129.209C118.614 134.062 113.954 143.953 112.058 154.178C111.26 158.478 111.48 163.181 110.971 167.758C105.329 169.187 102.207 170.063 99.3516 174.087C101.664 173.407 102.739 171.781 105.133 171.193C108.601 170.421 105.537 173.395 104.959 174.271C104.317 175.179 103.767 176.148 103.317 177.165C102.832 178.375 102.473 179.136 102.046 180.427C104.855 178.121 106.67 174.778 110.22 173.188C114.336 171.32 117.955 170.813 124.186 171.378C129.239 171.827 135.078 172.15 139.217 173.545C138.546 174.836 137.991 175.908 137.401 177.349C137.286 177.649 136.245 179.055 137.401 178.974C138.558 178.894 140.87 175.897 142.119 175.17C143.945 174.075 145.98 173.868 148.293 173.188C146.165 168.876 148.998 163.965 149.38 159.608C150.536 147.146 147.645 132.541 139.76 128.125C137.926 127.331 135.993 126.785 134.014 126.5V126.5Z" fill="black"/>
<path d="M136.014 129.336C136.962 129.509 137.402 130.35 138.003 130.777C132.935 133.709 128.98 138.227 126.753 143.63C124.493 149.09 122.909 154.803 122.036 160.645C121.898 163.076 121.597 165.494 121.134 167.885C119.617 167.93 118.099 167.868 116.59 167.7C113.654 167.285 114.567 162.57 114.775 159.735C115.781 146.374 119.643 137.117 128.568 131.687C130.291 130.638 132.788 128.725 136.014 129.336Z" fill="#E5E5E5"/>
<path d="M134.014 149.417C135.078 149.613 137.078 151.469 138.003 152.138C136.847 156.576 134.835 160.011 133.47 164.622C131.947 164.722 130.416 164.602 128.927 164.265C126.822 163.504 131.32 148.91 134.014 149.417Z" fill="#E5E5E5"/>
<path d="M203.893 111.963C199.381 111.527 194.826 111.991 190.495 113.327C186.164 114.662 182.143 116.844 178.666 119.745C172.885 124.356 174.156 125.439 176.122 133.14C178.932 130.604 180.747 127.157 183.741 124.805C192.863 117.785 205.385 116.448 214.241 124.805C216.188 126.487 217.951 128.369 219.502 130.419C220.658 132.275 221.56 134.535 223.132 136.033C222.508 130.454 221.71 126.327 219.502 122.454C218.704 121.047 217.19 120.044 216.23 118.834C213.328 115.226 209.963 112.402 203.893 111.963Z" fill="black"/>
<path d="M136.558 115.399C129.447 114.684 124.799 117.912 121.134 120.828C117.469 123.745 114.844 128.725 113.33 133.855C120.648 129.094 126.048 119.549 138.916 123.007C139.854 123.098 140.772 123.34 141.633 123.722C144.836 125.716 146.05 129.97 149.264 131.687C150.247 130.085 152.409 126.016 151.808 123.364C151.623 122.581 150.339 121.589 149.807 121.059C146.882 117.831 142.061 115.952 136.558 115.399Z" fill="black"/>
<path d="M268.859 109.208C262.153 108.229 260.477 114.972 254.523 111.929C254.595 114.685 255.022 117.42 255.794 120.068C256.951 119.272 258.974 116.932 260.523 116.817C261.309 116.748 264.778 122.223 265.957 123.145C265.68 120.609 264.72 115.433 266.686 113.923C268.998 112.113 274.039 116.529 274.86 117.716C275.561 119.083 276.048 120.548 276.305 122.062C276.597 121.479 276.841 120.874 277.033 120.252C277.256 118.35 276.806 116.43 275.762 114.822C274.455 112.436 272.027 109.716 268.859 109.208Z" fill="black"/>
</g>
</g>
<defs>
<clipPath id="clip0">
<rect width="242" height="249" fill="white" transform="translate(49 85)"/>
</clipPath>
</defs>
</svg>
