<svg width="349" height="170" viewBox="0 0 349 170" fill="none" xmlns="http://www.w3.org/2000/svg">
<g filter="url(#filter0_i)">
<path d="M174.5 169.759C270.874 169.759 349 156.413 349 139.949C349 123.485 270.874 110.138 174.5 110.138C78.1263 110.138 0 123.485 0 139.949C0 156.413 78.1263 169.759 174.5 169.759Z" fill="black"/>
</g>
<path d="M347.5 139.949C347.5 141.367 346.661 142.995 344.493 144.805C342.34 146.603 339.074 148.405 334.725 150.161C326.041 153.669 313.386 156.859 297.638 159.549C266.166 164.926 222.629 168.259 174.5 168.259C126.371 168.259 82.8344 164.926 51.3625 159.549C35.6143 156.859 22.9588 153.669 14.2748 150.161C9.92584 148.405 6.65982 146.603 4.50652 144.805C2.33862 142.995 1.5 141.367 1.5 139.949C1.5 138.53 2.33862 136.902 4.50652 135.092C6.65982 133.295 9.92584 131.493 14.2748 129.736C22.9588 126.229 35.6143 123.038 51.3625 120.348C82.8344 114.972 126.371 111.638 174.5 111.638C222.629 111.638 266.166 114.972 297.638 120.348C313.386 123.038 326.041 126.229 334.725 129.736C339.074 131.493 342.34 133.295 344.493 135.092C346.661 136.902 347.5 138.53 347.5 139.949Z" stroke="black" stroke-width="3"/>
<mask id="mask0" mask-type="alpha" maskUnits="userSpaceOnUse" x="0" y="0" width="349" height="165">
<path d="M174.5 164.623C270.874 164.623 349 148.899 349 129.503C349 110.107 270.874 0 174.5 0C78.1263 0 0 110.107 0 129.503C0 148.899 78.1263 164.623 174.5 164.623Z" fill="black"/>
</mask>
<g mask="url(#mask0)">
<g clip-path="url(#clip0)">
<path d="M238.22 87C232.046 91.15 220.311 94.9657 210.264 94.9657C209.929 93.0982 210.669 90.1471 210.449 87.3574C210.333 87.3574 209.813 87.4381 209.721 87.3574C204.513 90.4097 198.794 92.4954 192.84 93.5132C187.857 94.4354 183.741 94.4469 179.417 95.6804C176.213 96.6 173.059 97.689 169.971 98.9428C169.292 99.388 168.562 99.7517 167.797 100.026C164.965 100.407 161.774 98.1243 159.08 97.7208C154.131 96.8908 148.212 97.7208 143.113 96.8217C138.014 95.9225 135.02 93.1097 131.493 90.6658C131.262 93.6169 132.881 96.1646 133.494 99.1733C131.019 99.8074 128.291 100.015 125.874 100.614C124.082 101.052 122.047 102.378 120.244 102.609C119.689 102.678 119.562 102.297 119.157 102.424C117.839 102.839 116.371 104.488 114.625 104.73C112.312 105.099 110.173 103.98 108.081 103.831C96.7387 102.978 86.8071 106.666 82.1361 112.695C72.8867 124.581 75.199 141.227 87.2117 148.708C90.0213 150.46 93.5014 151.014 96.8312 152.328C96.1509 155.283 94.6387 157.982 92.4724 160.109C92.033 160.536 91.4318 160.72 91.0271 161.193C90.8075 161.446 90.7034 161.792 90.4837 162.103C92.6458 162.265 96.1606 162.103 97.4208 163.36C95.5131 170.576 93.9523 168.075 87.443 170.058C71.3374 174.922 56.9314 184.975 51.6823 200.641C50.5261 204.099 50.4452 207.362 49.8787 211.5C49.0809 217.264 48.5606 224.918 49.8787 230.867C50.7111 229.091 51.9482 227.408 53.4975 226.878C53.4975 238.152 52.2373 248.562 55.4977 258.188C56.492 255.617 57.4748 252.7 59.3131 250.948C59.949 251.501 59.8912 251.052 60.2149 252.032C63.2672 261.069 64.3309 267.882 69.4644 274.834C74.5978 281.785 82.1824 284.655 84.7028 294.558H85.2462C85.8359 292.656 86.0902 290.73 86.518 288.794C86.7596 288.828 87.0049 288.828 87.2464 288.794C95.8715 296.644 105.283 303.976 116.648 309.06C122.429 311.653 128.672 313.233 134.615 315.757C142.906 319.363 150.968 323.47 158.756 328.057C162.78 330.363 167.011 332.334 169.647 336.023C171.671 333.545 173.324 330.755 175.266 328.242C181.186 320.61 189.568 315.158 198.321 310.328C199.939 309.428 204.194 306.431 205.94 306.351C208.16 306.224 206.46 309.659 206.31 310.512C206.31 310.754 206.183 311.446 206.483 311.411C206.784 311.377 207.582 310.258 207.94 309.97C212.125 307.123 216.773 304.806 221.19 302.362C223.71 300.979 226.15 300.425 228.994 299.284C233.143 297.569 237.203 295.645 241.157 293.52C250.094 288.805 258.5 281.531 265.113 274.338C267.564 271.663 269.31 267.871 272.05 265.473C272.282 265.279 272.526 265.098 272.779 264.931C274.663 266.153 274.594 268.562 274.964 271.26C276.999 269.323 277.785 266.303 279.138 263.663C283.59 255.302 286.303 246.131 287.115 236.7C287.573 233.161 287.755 229.592 287.659 226.025C287.476 225.13 287.418 224.215 287.485 223.304C287.82 221.898 289.162 222.636 289.798 223.304C290.165 223.726 290.594 224.092 291.069 224.388C291.037 222.372 290.762 220.367 290.248 218.417C287.414 205.861 281.557 194.181 273.183 184.387C270.316 181.136 266.165 179.049 263.02 176.064C263.252 175.891 263.101 175.326 263.39 175.164C265.206 174.15 267.888 174.012 269.553 173.17C265.529 171.406 260.87 165.804 259.575 161.412C261.575 160.905 269.472 161.735 266.292 159.418C263.98 157.688 259.251 151.936 261.032 148.201C264.671 148.337 268.304 147.785 271.738 146.576C275.369 145.18 278.613 142.94 281.201 140.043C283.789 137.146 285.646 133.675 286.618 129.918C291.451 113.318 278.825 96.8332 262.338 98.0667C259.542 98.2672 256.791 98.881 254.176 99.888C253.089 100.326 251.412 101.998 250.002 101.871C249.1 101.79 247.689 100.464 246.915 100.061C244.226 98.5119 241.275 97.4686 238.209 96.9831C237.85 94.6775 240.197 91.2192 238.926 87.9337C238.798 87.5879 238.371 87.2882 238.22 87Z" fill="black"/>
<path d="M231.11 94.7812C231.792 97.7208 229.954 99.5076 228.798 101.698C234.567 100.426 240.601 101.196 245.863 103.877C247.019 104.511 250.256 107.104 251.308 107.335C252.36 107.566 256.291 104.395 257.482 103.877C261.232 102.347 265.377 102.066 269.3 103.075C273.223 104.085 276.714 106.331 279.253 109.479V109.848C280.143 112.407 282.433 114.793 282.884 118.171C284.641 131.059 278.444 139.786 268.732 141.872C266.512 142.356 263.541 142.967 260.928 142.241C258.904 141.665 257.922 138.045 257.656 135.728C263.437 135.082 267.264 134.575 269.634 130.656C271.357 127.831 267.61 130.759 266.003 131.025C260.407 131.901 256.164 128.465 251.308 128.846C252.118 130.645 252.726 132.528 253.124 134.46C254.21 138.714 255.436 143.14 256.754 147.14C257.61 149.757 258.384 152.063 259.066 154.553C255.702 154.818 253.898 153.907 251.447 152.927C252.962 156.178 253.944 159.406 255.251 163.06C256.141 165.504 257.633 167.602 258.338 170.3C254.673 171.141 251.967 170.427 248.718 169.389C248.736 169.631 248.736 169.874 248.718 170.115C250.43 171.695 251.667 173.873 253.436 175.36C256.523 177.954 260.222 179.799 263.425 182.277C270.073 187.58 275.579 194.167 279.612 201.644C280.698 203.638 283.23 207.131 283.415 209.425C283.577 211.154 280.34 210.174 279.242 210.14C280.493 214.079 281.466 218.1 282.155 222.175C283.751 234.682 280.213 245.864 277.438 254.925C277.069 255.028 276.706 255.151 276.351 255.294C275.195 253.622 274.455 252.331 272.362 251.49C272.362 255.974 269.484 258.649 267.645 261.45C260.512 272.274 250.557 280.378 239.145 286.961C234.613 289.578 229.248 290.996 224.624 293.29C221.502 294.846 218.843 297.901 215.189 298.719C214.704 296.621 214.577 293.831 213.189 292.575C210.519 295.36 207.605 297.902 204.483 300.172C196.228 305.555 187.013 309.924 178.885 315.365C175.656 317.524 172.566 319.884 169.636 322.432C169.092 322.904 168.41 324.242 167.636 324.415C167.127 324.53 149.634 314.489 147.125 313.383C135.633 308.23 123.331 305.071 111.734 299.987C101.745 295.595 88.4142 282.35 83.6045 272.666C83.2114 273.923 82.7142 276.724 82.1592 278.096C79.9509 277.312 78.9682 275.71 77.6154 274.107C70.8518 266.096 66.6086 258.441 64.5506 245.703C64.3887 244.7 64.0535 238.844 64.1922 240.815C63.9725 239.19 63.9147 238.671 63.8222 237.195C62.0995 238.44 60.9318 240.861 58.92 241.172C57.6713 231.95 59.0472 218.117 62.5504 212.353C60.689 212.768 59.475 213.909 57.6598 214.716C56.3533 211.627 57.8795 206.243 58.7466 203.131C62.8973 188.145 75.9274 176.502 91.5937 173.274C93.2354 172.928 99.5135 172.386 100.126 171.464C100.739 170.542 100.542 169.458 100.843 168.202C101.872 164.144 103.549 159.348 104.843 155.36C104.088 155.506 103.354 155.747 102.658 156.074C101.502 156.536 100.496 156.732 100.67 154.991C100.774 153.942 101.641 152.87 101.941 151.913C103.098 148.063 104.774 144.57 105.93 140.881C107.584 135.624 107.78 130.506 108.832 124.592C109.449 122.087 109.936 119.551 110.289 116.995C107.796 117.039 105.304 116.858 102.843 116.453C92.8308 115.301 88.0673 118.759 86.5065 126.217C87.906 124.054 90.0272 122.454 92.4955 121.699C93.2081 121.514 93.9471 121.452 94.6807 121.514C93.7652 122.882 92.9905 124.338 92.3683 125.86C91.9983 127.094 91.9174 132.143 92.9117 130.022C93.2123 129.365 93.721 128.512 93.9985 127.854C94.3619 127.016 94.8533 126.238 95.4553 125.549C96.5871 124.028 97.9999 122.737 99.6175 121.745C103.491 119.439 104.138 121.41 103.803 125.906C103.26 133.192 98.4729 140.766 89.8247 136.765C90.4921 137.632 91.3666 138.317 92.3683 138.76C94.6532 140.345 97.3901 141.154 100.173 141.065C100.404 142.034 99.7794 147.21 98.1723 147.578C96.3109 147.982 93.5476 146.345 92.3914 145.769C91.0742 145.266 89.7985 144.66 88.576 143.959C80.8874 138.356 78.6676 124.811 84.7606 115.912C89.0732 109.617 97.1086 106.044 108 106.862C110.671 107.058 114.336 109.053 116.521 108.672C117.978 108.419 119.689 107.104 121.065 106.678C126.522 104.972 134.846 102.378 141.934 104.142C141.231 102.762 140.684 101.308 140.304 99.8073C145.217 99.8073 161.115 101.583 163.901 103.957L164.075 104.142C164.618 104.557 164.445 107.796 164.618 108.488C165.025 109.582 165.577 110.618 166.26 111.566C166.634 110.059 167.181 108.601 167.89 107.22C170.561 103.565 180.157 99.5422 185.857 98.8967C188.273 98.62 190.008 99.1042 192.204 98.7122C196.378 97.9744 200.529 96.4758 204.552 95.4614C204.983 97.6556 204.525 99.9305 203.281 101.79C203.419 101.79 203.281 102.297 203.824 102.159C205.431 101.732 207.871 100.395 209.813 99.9803C214.299 99.0004 219.328 98.7583 223.606 97.6747C226.023 97.0061 228.439 95.5651 231.11 94.7812Z" fill="#A5885E"/>
<path d="M197.904 125.18C188.805 125.18 179.14 135.29 177.209 142.552C175.559 148.349 174.467 154.29 173.948 160.294C173.729 163.141 174.7 166.772 173.948 169.516C173.613 170.726 170.202 171.475 169.231 172.236C168.296 173.095 167.551 174.14 167.046 175.303C168.717 174.467 170.489 173.847 172.318 173.458C172.133 175.234 171.046 176.017 170.33 177.804C172.307 176.997 174.156 175.499 176.11 174.911C187.672 171.176 213.594 173.228 222.577 177.216C225.005 178.311 226.555 180.26 228.566 181.747C227.584 178.542 225.433 176.709 223.294 174.68L223.664 173.781C224.011 173.781 224.936 173.965 224.936 173.965C227.582 174.27 230.061 175.409 232.012 177.216C229.514 171.522 224.3 171.199 218.577 168.709C218.565 150.322 216.253 125.18 197.904 125.18Z" fill="black"/>
<path d="M201.893 129.526C203.049 129.722 203.049 130.344 203.35 130.978C193.684 134.886 187.799 146.161 185.926 157.757C185.51 160.317 185.001 168.132 183.926 169.885C183.498 170.576 181.047 170.588 180.458 170.599C179.847 170.678 179.227 170.619 178.642 170.427C177.59 169.839 178.215 166.507 178.099 164.997C177.667 157.179 178.848 149.356 181.568 142.011C181.661 141.641 181.781 141.279 181.926 140.927C184.967 135.417 192.031 127.901 201.893 129.526Z" fill="white"/>
<path d="M198.991 150.703C200.466 151.083 201.754 151.979 202.622 153.227C200.76 157.17 198.876 161.527 196.633 165.354C195.106 165.228 193.765 165.17 192.089 165.17C191.06 162.588 194.933 151.74 196.818 150.875C197.515 150.63 198.264 150.57 198.991 150.703Z" fill="white"/>
<path d="M134.014 128.5C134.014 128.5 132.765 128.5 132.569 128.5C130.349 128.627 127.643 130.148 126.025 131.209C118.614 136.062 113.954 145.953 112.058 156.178C111.26 160.478 111.48 165.181 110.971 169.758C105.329 171.187 102.207 172.063 99.3516 176.087C101.664 175.407 102.739 173.781 105.133 173.193C108.601 172.421 105.537 175.395 104.959 176.271C104.317 177.179 103.767 178.148 103.317 179.165C102.832 180.375 102.473 181.136 102.046 182.427C104.855 180.121 106.67 176.778 110.22 175.188C114.336 173.32 117.955 172.813 124.186 173.378C129.239 173.827 135.078 174.15 139.217 175.545C138.546 176.836 137.991 177.908 137.401 179.349C137.286 179.649 136.245 181.055 137.401 180.974C138.558 180.894 140.87 177.897 142.119 177.17C143.945 176.075 145.98 175.868 148.293 175.188C146.165 170.876 148.998 165.965 149.38 161.608C150.536 149.146 147.645 134.541 139.76 130.125C137.926 129.331 135.993 128.785 134.014 128.5Z" fill="black"/>
<path d="M136.014 131.336C136.962 131.509 137.402 132.35 138.003 132.777C132.935 135.709 128.98 140.227 126.753 145.63C124.493 151.09 122.909 156.803 122.036 162.645C121.898 165.076 121.597 167.494 121.134 169.885C119.617 169.93 118.099 169.868 116.59 169.7C113.654 169.285 114.567 164.57 114.775 161.735C115.781 148.374 119.643 139.117 128.568 133.687C130.291 132.638 132.788 130.725 136.014 131.336Z" fill="white"/>
<path d="M134.014 151.417C135.078 151.613 137.078 153.469 138.003 154.138C136.847 158.576 134.835 162.011 133.471 166.622C131.947 166.722 130.416 166.602 128.927 166.265C126.822 165.504 131.32 150.91 134.014 151.417Z" fill="white"/>
<path d="M203.893 113.963C199.381 113.527 194.826 113.991 190.495 115.327C186.164 116.662 182.143 118.844 178.666 121.745C172.885 126.356 174.156 127.439 176.122 135.14C178.931 132.604 180.747 129.157 183.741 126.805C192.863 119.785 205.385 118.448 214.241 126.805C216.188 128.487 217.951 130.369 219.502 132.419C220.658 134.275 221.56 136.535 223.132 138.033C222.508 132.454 221.71 128.327 219.502 124.454C218.704 123.047 217.189 122.044 216.23 120.834C213.328 117.226 209.963 114.402 203.893 113.963Z" fill="black"/>
<path d="M136.557 117.399C129.447 116.684 124.799 119.912 121.134 122.828C117.469 125.745 114.844 130.725 113.33 135.855C120.648 131.094 126.048 121.549 138.916 125.007C139.854 125.098 140.772 125.34 141.633 125.722C144.836 127.716 146.05 131.97 149.264 133.687C150.247 132.085 152.409 128.016 151.807 125.364C151.623 124.581 150.339 123.589 149.807 123.059C146.882 119.831 142.061 117.952 136.557 117.399Z" fill="black"/>
<path d="M268.859 111.208C262.153 110.229 260.477 116.972 254.523 113.929C254.595 116.685 255.022 119.42 255.794 122.068C256.951 121.272 258.974 118.932 260.523 118.817C261.309 118.748 264.778 124.223 265.957 125.145C265.68 122.609 264.72 117.433 266.686 115.923C268.998 114.113 274.039 118.529 274.86 119.716C275.561 121.083 276.048 122.548 276.305 124.062C276.597 123.479 276.841 122.874 277.033 122.252C277.256 120.35 276.806 118.43 275.762 116.822C274.455 114.436 272.027 111.716 268.859 111.208Z" fill="black"/>
</g>
</g>
<defs>
<filter id="filter0_i" x="0" y="110.138" width="349" height="59.6208" filterUnits="userSpaceOnUse" color-interpolation-filters="sRGB">
<feFlood flood-opacity="0" result="BackgroundImageFix"/>
<feBlend mode="normal" in="SourceGraphic" in2="BackgroundImageFix" result="shape"/>
<feColorMatrix in="SourceAlpha" type="matrix" values="0 0 0 0 0 0 0 0 0 0 0 0 0 0 0 0 0 0 127 0" result="hardAlpha"/>
<feOffset dy="13"/>
<feComposite in2="hardAlpha" operator="arithmetic" k2="-1" k3="1"/>
<feColorMatrix type="matrix" values="0 0 0 0 1 0 0 0 0 1 0 0 0 0 1 0 0 0 0.25 0"/>
<feBlend mode="normal" in2="shape" result="effect1_innerShadow"/>
</filter>
<clipPath id="clip0">
<rect width="242" height="249" fill="white" transform="translate(49 87)"/>
</clipPath>
</defs>
</svg>
