<svg width="286" height="39" viewBox="0 0 286 39" fill="none" xmlns="http://www.w3.org/2000/svg">
<path d="M54.6 29.153L44.39 12.1396H47.2V3.31262H30.2V12.1696H33L29.1 18.6547L25.2 12.1696H28V3.31262H11V12.1696H13.81L3.6 29.1831H0V38.03H17.33V29.153H14.22L19.54 20.306L21.6 23.7287H19.6V32.5857H38.6V23.7287H36.6L38.67 20.306L44 29.153H40.91V38.03H58.24V29.153H54.6Z" fill="#FFCD34"/>
<path d="M276.19 3.53279L276.27 6.25494H275.91C275.58 4.51357 275.16 4.25336 272.86 4.25336V12.3798C272.833 12.5661 272.85 12.756 272.91 12.9346C272.969 13.1132 273.069 13.2754 273.202 13.4085C273.335 13.5416 273.497 13.6418 273.676 13.7013C273.854 13.7607 274.044 13.7777 274.23 13.7509V14.1412H270V13.7509C270.187 13.7794 270.378 13.7637 270.558 13.7051C270.737 13.6464 270.901 13.5464 271.035 13.4131C271.169 13.2798 271.27 13.1169 271.33 12.9375C271.39 12.758 271.407 12.567 271.38 12.3798V4.22334C269.08 4.22334 268.66 4.51357 268.33 6.22492H268V3.53279H276.19Z" fill="white" stroke="white" stroke-width="0.2" stroke-miterlimit="10"/>
<path d="M262.08 3.33263C259.47 3.33263 257.36 5.47432 257.36 8.80695C257.36 12.1396 259.47 14.2813 262.08 14.2813C264.69 14.2813 266.8 12.1396 266.8 8.80695C266.8 5.47432 264.68 3.33263 262.08 3.33263ZM262.08 13.6608C260.08 13.6608 258.97 11.7593 258.97 8.80695C258.97 5.85462 260.1 4.00316 262.08 4.00316C264.06 4.00316 265.19 5.90466 265.19 8.85699C265.19 11.8093 264.06 13.6608 262.08 13.6608Z" fill="white" stroke="white" stroke-width="0.2" stroke-miterlimit="10"/>
<path d="M284.43 12.8101C284.24 12.3097 280.7 3.38268 280.7 3.38268H280.34C280.34 3.38268 277.21 11.5691 276.83 12.5299C276.45 13.4907 275.98 13.7208 275.61 13.7208V14.1111H278.49V13.7208C278.272 13.7351 278.058 13.6652 277.89 13.5255C277.723 13.3858 277.615 13.187 277.59 12.9702C277.584 12.835 277.601 12.6997 277.64 12.5699L278.34 10.6584H282C282.38 11.6592 282.66 12.4598 282.67 12.4999C282.733 12.6498 282.774 12.8083 282.79 12.9702C282.79 13.3806 282.46 13.7208 281.79 13.7208V14.1111H285.49V13.7208C285.248 13.6782 285.022 13.5711 284.835 13.4109C284.649 13.2506 284.509 13.0431 284.43 12.8101V12.8101ZM278.62 9.91783C279.33 7.9763 280.18 5.6945 280.18 5.6945C280.18 5.6945 281 8.00633 281.73 9.91783H278.62Z" fill="white" stroke="white" stroke-width="0.2" stroke-miterlimit="10"/>
<path d="M246.84 11.359C246.689 11.9651 246.334 12.5008 245.835 12.8761C245.336 13.2515 244.724 13.4438 244.1 13.4206H242.43C241.81 13.4206 241.55 13.2104 241.55 12.71V8.94707H243.82C244.7 8.94707 245.17 9.43745 245.31 10.3782H245.66V6.7153H245.28C245.23 7.71609 244.7 8.2265 243.91 8.2265H241.55V4.69371C241.55 4.3034 241.8 4.22334 242.12 4.22334H244.12C245.39 4.22334 245.83 4.74375 246.12 5.92468H246.48L246.39 3.53279H238.79V3.9231C239.68 3.9231 240.08 4.34343 240.08 5.29418V12.3498C240.08 13.3005 239.68 13.7208 238.79 13.7208V14.1111H246.59L247.27 11.359H246.84Z" fill="white" stroke="white" stroke-width="0.2" stroke-miterlimit="10"/>
<path d="M254.89 3.31262L255.19 6.80538H254.8C254.28 5.08402 253.4 4.00317 252.14 4.00317C251.95 3.99146 251.761 4.0202 251.583 4.08748C251.405 4.15475 251.244 4.25903 251.11 4.39341C250.976 4.52778 250.871 4.68918 250.804 4.8669C250.737 5.04463 250.708 5.23462 250.72 5.42429C250.72 6.35502 251.4 6.90546 252.25 7.48592L254 8.66685C254.447 8.96112 254.819 9.35604 255.087 9.82003C255.354 10.284 255.509 10.8042 255.54 11.339C255.551 11.7362 255.481 12.1316 255.334 12.5009C255.187 12.8701 254.967 13.2055 254.686 13.4865C254.405 13.7676 254.07 13.9883 253.701 14.1353C253.332 14.2823 252.937 14.3524 252.54 14.3413C251.54 14.3413 250.84 13.8209 250.32 13.8209C250.03 13.8209 249.89 14.1111 249.82 14.3413H249.46L249 10.8085H249.38C250.02 12.61 250.97 13.6708 252.29 13.6708C252.522 13.6769 252.753 13.6344 252.968 13.5461C253.183 13.4578 253.377 13.3256 253.538 13.1579C253.699 12.9903 253.823 12.7909 253.903 12.5724C253.982 12.354 254.015 12.1214 254 11.8894C253.993 11.503 253.883 11.1255 253.683 10.7951C253.483 10.4647 253.199 10.1931 252.86 10.0079L250.77 8.50672C250.349 8.24285 250.006 7.87255 249.774 7.43323C249.542 6.99392 249.431 6.50116 249.45 6.00475C249.43 5.65424 249.484 5.30347 249.607 4.97489C249.731 4.6463 249.922 4.34715 250.167 4.09656C250.413 3.84598 250.708 3.64949 251.034 3.51967C251.36 3.38985 251.709 3.32955 252.06 3.34265C252.77 3.34265 253.57 3.81302 254.01 3.81302C254.073 3.81572 254.137 3.80555 254.196 3.78312C254.255 3.7607 254.31 3.72648 254.355 3.68253C254.401 3.63858 254.438 3.58581 254.462 3.5274C254.487 3.46898 254.5 3.40614 254.5 3.34265L254.89 3.31262Z" fill="white" stroke="white" stroke-width="0.2" stroke-miterlimit="10"/>
<path d="M233.89 3.53279V3.9231C234.71 3.9231 235.21 4.5536 235.21 5.51436V11.0787L229.72 3.53279H227.33V3.9231C227.52 3.92263 227.708 3.96357 227.881 4.04307C228.053 4.12256 228.207 4.23872 228.33 4.38346L228.64 4.79379V11.8894C228.64 13.0903 228.22 13.7208 227.26 13.7208V14.1111H230.64V13.7208C229.81 13.7208 229.32 13.1804 229.32 12.2096V5.71451L235.63 14.2713H235.86V5.76455C235.86 4.41349 236.4 3.9231 237.22 3.9231V3.53279H233.89Z" fill="white" stroke="white" stroke-width="0.2" stroke-miterlimit="10"/>
<path d="M222.17 3.53279V3.9231C222.99 3.9231 223.49 4.5536 223.49 5.51436V11.0787L218 3.53279H215.61V3.9231C215.8 3.92263 215.988 3.96357 216.161 4.04307C216.333 4.12256 216.487 4.23872 216.61 4.38346L216.92 4.79379V11.8894C216.92 13.0903 216.5 13.7208 215.54 13.7208V14.1111H219V13.7208C218.18 13.7208 217.68 13.1804 217.68 12.2096V5.71451L224 14.2713H224.22V5.76455C224.22 4.41349 224.77 3.9231 225.6 3.9231V3.53279H222.17Z" fill="white" stroke="white" stroke-width="0.2" stroke-miterlimit="10"/>
<path d="M208 0.490314V0.100006H204.73L200.48 11.529L196.21 0.100006H192.88V0.490314C194.28 0.490314 194.67 1.25091 194.67 2.63201V11.2188C194.67 13.2204 194.11 13.7208 192.86 13.7208V14.1111H197.17V13.7208C195.96 13.7208 195.38 13.2003 195.38 11.2188V2.21167L199.83 14.1111H200.24L204.77 2.00151V11.1988C204.77 13.2003 204.32 13.7007 203.07 13.7007V14.0911H208V13.7007C206.79 13.7007 206.32 13.1803 206.32 11.1988V2.43185C206.33 0.840591 207.18 0.490314 208 0.490314Z" fill="white" stroke="white" stroke-width="0.2" stroke-miterlimit="10"/>
<path d="M212 5.29418C211.973 5.1079 211.99 4.91793 212.05 4.73936C212.109 4.56078 212.209 4.39851 212.342 4.26543C212.475 4.13236 212.637 4.03213 212.816 3.9727C212.994 3.91328 213.184 3.89629 213.37 3.9231V3.53279H209.12V3.9231C209.306 3.89629 209.496 3.91328 209.674 3.9727C209.853 4.03213 210.015 4.13236 210.148 4.26543C210.281 4.39851 210.381 4.56078 210.44 4.73936C210.5 4.91793 210.517 5.1079 210.49 5.29418V12.3498C210.517 12.536 210.5 12.726 210.44 12.9046C210.381 13.0832 210.281 13.2454 210.148 13.3785C210.015 13.5116 209.853 13.6118 209.674 13.6712C209.496 13.7307 209.306 13.7476 209.12 13.7208V14.1111H213.37V13.7208C213.184 13.7476 212.994 13.7307 212.816 13.6712C212.637 13.6118 212.475 13.5116 212.342 13.3785C212.209 13.2454 212.109 13.0832 212.05 12.9046C211.99 12.726 211.973 12.536 212 12.3498V5.29418Z" fill="white" stroke="white" stroke-width="0.2" stroke-miterlimit="10"/>
<path d="M173.08 3.34264C170.48 3.34264 168.36 5.49433 168.36 8.82696C168.36 12.1596 170.48 14.3013 173.08 14.3013C175.68 14.3013 177.8 12.1596 177.8 8.82696C177.8 5.49433 175.69 3.34264 173.08 3.34264ZM173.08 13.6808C171.08 13.6808 169.97 11.7793 169.97 8.82696C169.97 5.87463 171.1 4.00316 173.08 4.00316C175.06 4.00316 176.19 5.90466 176.19 8.867C176.19 11.8293 175.06 13.6808 173.08 13.6808Z" fill="white" stroke="white" stroke-width="0.2" stroke-miterlimit="10"/>
<path d="M187 3.53279H179.31V3.9231C180.2 3.9231 180.6 4.34343 180.6 5.29418V12.3498C180.6 13.3005 180.2 13.7208 179.31 13.7208V14.1111H183.4V13.7208C183.211 13.7552 183.017 13.7439 182.834 13.6876C182.65 13.6314 182.483 13.532 182.346 13.3977C182.209 13.2634 182.106 13.0981 182.045 12.9158C181.985 12.7335 181.97 12.5394 182 12.3498V8.94707H184.19C185.07 8.94707 185.54 9.43745 185.68 10.3782H186.03V6.7153H185.65C185.59 7.71609 185.07 8.2265 184.27 8.2265H182V4.69371C182 4.3034 182.24 4.22334 182.57 4.22334H184.69C185.95 4.22334 186.39 4.74375 186.69 5.92468H187V3.53279Z" fill="white" stroke="white" stroke-width="0.2" stroke-miterlimit="10"/>
<path d="M151.67 3.55281L151.75 6.26495H151.4C151.07 4.52357 150.64 4.26337 148.35 4.26337V12.3998C148.323 12.5861 148.34 12.776 148.4 12.9546C148.459 13.1332 148.559 13.2955 148.692 13.4285C148.825 13.5616 148.987 13.6618 149.166 13.7213C149.344 13.7807 149.534 13.7977 149.72 13.7709V14.1512H145.47V13.7709C145.656 13.7977 145.846 13.7807 146.024 13.7213C146.203 13.6618 146.365 13.5616 146.498 13.4285C146.631 13.2955 146.731 13.1332 146.79 12.9546C146.85 12.776 146.867 12.5861 146.84 12.3998V4.23334C144.55 4.23334 144.13 4.52357 143.84 6.23492H143.48L143.56 3.52278L151.67 3.55281Z" fill="white" stroke="white" stroke-width="0.2" stroke-miterlimit="10"/>
<path d="M159.83 3.93311V3.55281H163.06V3.93311C162.754 3.98841 162.462 4.10569 162.202 4.27776C161.942 4.44984 161.72 4.6731 161.55 4.9339L159 9.28734V12.3698C159 13.3706 159.37 13.7409 160.48 13.7409V14.1212H156V13.7409C157.11 13.7409 157.49 13.3906 157.49 12.3698V9.45747L154.64 5.00396C154.484 4.73667 154.27 4.50793 154.014 4.33468C153.758 4.16143 153.466 4.04812 153.16 4.00317V3.55281H157.33V3.93311C156.75 3.93311 156.33 4.19332 156.33 4.49355C156.344 4.68626 156.399 4.87384 156.49 5.04399L158.61 8.53674C158.61 8.53674 160.61 5.00396 160.69 4.90388C160.752 4.80153 160.783 4.68335 160.78 4.56361C160.79 4.27338 160.62 3.93311 159.83 3.93311Z" fill="white" stroke="white" stroke-width="0.2" stroke-miterlimit="10"/>
<path d="M134.82 3.31262L135.12 6.80537H134.74C134.22 5.08402 133.34 4.03319 132.08 4.03319C131.89 4.01999 131.699 4.04763 131.52 4.11424C131.341 4.18085 131.179 4.28491 131.043 4.41945C130.908 4.55398 130.803 4.7159 130.735 4.89437C130.667 5.07284 130.638 5.26374 130.65 5.45431C130.65 6.38504 131.33 6.93548 132.19 7.51594L133.89 8.66684C134.334 8.96336 134.704 9.35903 134.969 9.82272C135.235 10.2864 135.389 10.8054 135.42 11.339C135.431 11.7362 135.361 12.1316 135.214 12.5008C135.067 12.8701 134.847 13.2055 134.566 13.4865C134.285 13.7676 133.95 13.9883 133.581 14.1353C133.212 14.2823 132.817 14.3524 132.42 14.3413C131.42 14.3413 130.72 13.8209 130.2 13.8209C129.91 13.8209 129.77 14.1111 129.71 14.3413H129.35L128.91 10.8185H129.29C129.94 12.62 130.88 13.6808 132.2 13.6808C132.434 13.6897 132.667 13.6494 132.884 13.5623C133.102 13.4753 133.298 13.3435 133.461 13.1755C133.624 13.0076 133.75 12.8072 133.831 12.5873C133.912 12.3675 133.946 12.1331 133.93 11.8994C133.924 11.5113 133.816 11.1317 133.616 10.7994C133.415 10.4671 133.13 10.1939 132.79 10.0079L130.71 8.50672C130.289 8.24285 129.946 7.87255 129.714 7.43323C129.482 6.99391 129.371 6.50115 129.39 6.00474C129.366 5.6518 129.416 5.29774 129.538 4.96555C129.659 4.63336 129.849 4.33048 130.096 4.07658C130.342 3.82269 130.638 3.62346 130.967 3.49184C131.295 3.36022 131.647 3.29916 132 3.31262C132.72 3.31262 133.51 3.78299 133.95 3.78299C134.014 3.78567 134.078 3.77555 134.138 3.75324C134.197 3.73092 134.252 3.69686 134.299 3.65305C134.345 3.60923 134.383 3.55655 134.409 3.49809C134.435 3.43963 134.449 3.37657 134.45 3.31262H134.82Z" fill="white" stroke="white" stroke-width="0.2" stroke-miterlimit="10"/>
<path d="M140.64 5.30419C140.614 5.11886 140.63 4.92992 140.689 4.75221C140.748 4.57451 140.847 4.41288 140.979 4.28001C141.111 4.14715 141.272 4.04668 141.449 3.98649C141.626 3.9263 141.815 3.90803 142 3.93311V3.55281H137.75V3.93311C137.936 3.90631 138.126 3.92329 138.304 3.98271C138.483 4.04214 138.645 4.14237 138.778 4.27545C138.911 4.40853 139.011 4.57079 139.07 4.74937C139.13 4.92794 139.147 5.11791 139.12 5.30419V12.3698C139.147 12.5561 139.13 12.746 139.07 12.9246C139.011 13.1032 138.911 13.2654 138.778 13.3985C138.645 13.5316 138.483 13.6318 138.304 13.6912C138.126 13.7507 137.936 13.7677 137.75 13.7409V14.1212H142V13.7409C141.814 13.7677 141.624 13.7507 141.446 13.6912C141.267 13.6318 141.105 13.5316 140.972 13.3985C140.839 13.2654 140.739 13.1032 140.68 12.9246C140.62 12.746 140.603 12.5561 140.63 12.3698L140.64 5.30419Z" fill="white" stroke="white" stroke-width="0.2" stroke-miterlimit="10"/>
<path d="M116.43 11.359C116.277 11.9641 115.922 12.4988 115.424 12.8738C114.925 13.2489 114.313 13.4419 113.69 13.4206H112C111.39 13.4206 111.12 13.2104 111.12 12.71V8.94707H113.4C114.28 8.94707 114.75 9.43745 114.89 10.3782H115.24V6.7153H114.86C114.8 7.71609 114.28 8.2265 113.48 8.2265H111.12V4.69371C111.12 4.3034 111.37 4.22334 111.7 4.22334H113.7C114.96 4.22334 115.4 4.74375 115.7 5.92468H116.05L116 3.53279H108.4V3.9231C109.29 3.9231 109.69 4.34343 109.69 5.29418V12.3498C109.69 13.3005 109.29 13.7208 108.4 13.7208V14.1111H116.2L116.88 11.359H116.43Z" fill="white" stroke="white" stroke-width="0.2" stroke-miterlimit="10"/>
<path d="M126.48 13.2605C126.23 12.9602 123.89 9.7477 123.37 9.03714C125.26 8.62681 125.93 7.66605 125.93 6.28496C125.93 4.63366 124.69 3.53279 122.44 3.53279H118.22V3.9231C119.1 3.9231 119.51 4.34343 119.51 5.29418V12.3498C119.51 13.3005 119.1 13.7208 118.22 13.7208V14.1111H122.31V13.7208C121.42 13.7208 121.01 13.3005 121.01 12.3498V9.2473C121.3 9.2473 121.56 9.2473 121.82 9.2473L125.24 14.1412H127.55V13.8109C127.342 13.8031 127.139 13.7498 126.954 13.6547C126.769 13.5596 126.607 13.425 126.48 13.2605V13.2605ZM121 8.6168V5.00395C121 4.27338 121.15 4.09323 122 4.09323C123.78 4.09323 124.44 4.97393 124.44 6.29497C124.44 7.91625 123.21 8.57677 121.44 8.57677L121 8.6168Z" fill="white" stroke="white" stroke-width="0.2" stroke-miterlimit="10"/>
<path d="M94 5.29418C93.9732 5.1079 93.9902 4.91793 94.0496 4.73936C94.1089 4.56078 94.2091 4.39851 94.3421 4.26543C94.475 4.13236 94.6372 4.03213 94.8156 3.9727C94.994 3.91328 95.1839 3.89629 95.37 3.9231V3.53279H91.15V3.9231C91.3369 3.89455 91.5279 3.91023 91.7076 3.96888C91.8873 4.02753 92.0509 4.12751 92.185 4.26081C92.3192 4.39411 92.4203 4.55702 92.4802 4.73648C92.5401 4.91593 92.5572 5.10694 92.53 5.29418V12.3498C92.5572 12.537 92.5401 12.728 92.4802 12.9075C92.4203 13.0869 92.3192 13.2498 92.185 13.3831C92.0509 13.5164 91.8873 13.6164 91.7076 13.6751C91.5279 13.7337 91.3369 13.7494 91.15 13.7208V14.1111H95.41V13.7208C95.2209 13.7547 95.0264 13.7431 94.8427 13.6868C94.659 13.6306 94.4913 13.5313 94.3535 13.3973C94.2157 13.2634 94.1118 13.0985 94.0503 12.9163C93.9888 12.7341 93.9716 12.5399 94 12.3498V5.29418Z" fill="white" stroke="white" stroke-width="0.2" stroke-miterlimit="10"/>
<path d="M101 3.9231V3.53279H97.14V3.9231C97.6 3.9231 98.14 4.22334 98.43 5.01396L102.24 14.2713H102.49L105.81 5.00395C106.09 4.26337 106.55 3.91309 106.99 3.91309V3.53279H103.99V3.9231C104.65 3.9231 104.99 4.27338 104.99 4.74375C104.99 4.88436 104.962 5.0236 104.91 5.15407L102.69 11.389C102.69 11.389 100.13 5.25415 100.06 5.064C100 4.91433 99.9699 4.75471 99.97 4.59363C100 4.1733 100.34 3.9231 101 3.9231Z" fill="white" stroke="white" stroke-width="0.2" stroke-miterlimit="10"/>
<path d="M65.54 0.490314C66.7 0.490314 67.3 1.06076 67.3 2.71207V9.24723C67.3 12.5498 69.11 14.2512 72.3 14.2512C72.9453 14.2996 73.5934 14.2075 74.1997 13.9812C74.8061 13.755 75.3562 13.4 75.8124 12.9406C76.2685 12.4813 76.6198 11.9285 76.8421 11.3202C77.0644 10.712 77.1524 10.0629 77.1 9.41736V2.32176C77.1 1.2309 77.43 0.490314 78.75 0.490314V0.100006H74.55V0.490314C75.73 0.490314 76.22 1.01073 76.25 2.43185C76.28 3.85297 76.36 7.59592 76.36 9.82769C76.2906 10.7929 75.8513 11.694 75.1338 12.3428C74.4163 12.9916 73.4761 13.338 72.5096 13.3096C71.543 13.2812 70.6248 12.8802 69.9466 12.1904C69.2684 11.5005 68.8827 10.5752 68.87 9.60751V2.30174C68.87 1.22089 69.28 0.490314 70.51 0.490314V0.100006H65.51L65.54 0.490314Z" fill="white" stroke="white" stroke-width="0.2" stroke-miterlimit="10"/>
<path d="M85.58 3.53279V3.9231C86.4 3.9231 86.9 4.5536 86.9 5.51436V11.0787L81.41 3.53279H79V3.9231C79.1896 3.92523 79.3767 3.96733 79.549 4.04665C79.7213 4.12597 79.875 4.24073 80 4.38346L80.3 4.79379V11.8894C80.3 13.0903 79.88 13.7208 78.93 13.7208V14.1111H82.3V13.7208C81.48 13.7208 80.98 13.1804 80.98 12.2096V5.71451L87.3 14.2713H87.51V5.76455C87.51 4.41349 88.06 3.9231 88.89 3.9231V3.53279H85.58Z" fill="white" stroke="white" stroke-width="0.2" stroke-miterlimit="10"/>
<path d="M93.89 25.0197H97.81C101.73 25.0197 104.53 27.6318 104.53 31.4048C104.53 35.1778 101.75 37.7898 97.81 37.7898H93.89V25.0197ZM97.68 35.478C100.51 35.478 101.81 33.7867 101.81 31.4048C101.81 29.0229 100.51 27.3316 97.68 27.3316H96.52V35.478H97.68Z" fill="#FFCD34"/>
<path d="M106.9 29.7935H109.44V31.2347C109.61 30.751 109.929 30.3341 110.352 30.0444C110.774 29.7546 111.278 29.6072 111.79 29.6234C112.224 29.6237 112.65 29.7339 113.03 29.9436L112.22 32.2555C111.913 32.0902 111.569 32.0042 111.22 32.0053C110.08 32.0053 109.46 32.5357 109.46 34.247V37.7898H106.9V29.7935Z" fill="#FFCD34"/>
<path d="M115 26.8612C115.032 26.4571 115.215 26.0799 115.512 25.8047C115.81 25.5296 116.2 25.3768 116.605 25.3768C117.01 25.3768 117.4 25.5296 117.698 25.8047C117.995 26.0799 118.178 26.4571 118.21 26.8612C118.178 27.2653 117.995 27.6425 117.698 27.9177C117.4 28.1928 117.01 28.3456 116.605 28.3456C116.2 28.3456 115.81 28.1928 115.512 27.9177C115.215 27.6425 115.032 27.2653 115 26.8612V26.8612ZM115.33 29.7935H117.87V37.7998H115.33V29.7935Z" fill="#FFCD34"/>
<path d="M120 29.7935H122.79L124 32.1754C124.279 32.863 124.499 33.5727 124.66 34.2971C124.804 33.573 125.011 32.863 125.28 32.1754L126.36 29.7935H128.94L124.66 37.96H124.41L120 29.7935Z" fill="#FFCD34"/>
<path d="M134.9 35.8583C135.617 35.8586 136.316 35.6347 136.9 35.2178L138.35 36.779C137.41 37.6078 136.181 38.0321 134.93 37.96C132.08 37.96 130.24 36.2386 130.24 33.7767C130.242 33.2095 130.359 32.6486 130.585 32.1284C130.81 31.6081 131.14 31.1393 131.552 30.7506C131.965 30.3619 132.452 30.0615 132.985 29.8677C133.518 29.6739 134.084 29.5907 134.65 29.6234C137.52 29.6234 139.08 31.7651 138.89 34.5573H132.83C132.965 34.9843 133.247 35.3495 133.627 35.5878C134.006 35.826 134.457 35.9219 134.9 35.8583V35.8583ZM136.34 33.0961C136.326 32.8925 136.272 32.6937 136.18 32.5116C136.088 32.3295 135.96 32.1678 135.804 32.0361C135.648 31.9045 135.468 31.8055 135.273 31.7452C135.078 31.6849 134.873 31.6644 134.67 31.685C134.236 31.6377 133.801 31.7572 133.452 32.0192C133.103 32.2812 132.866 32.6661 132.79 33.0961H136.34Z" fill="#FFCD34"/>
<path d="M141.56 29.7935H144.09L144 31.1046C144.236 30.6417 144.6 30.2562 145.049 29.9937C145.497 29.7313 146.011 29.6028 146.53 29.6234C148.28 29.6234 149.53 30.8944 149.53 33.1762V37.7898H147V33.3363C147 32.4356 146.57 31.9352 145.67 31.9352C145.456 31.9108 145.239 31.9343 145.034 32.0039C144.83 32.0735 144.644 32.1875 144.489 32.3378C144.334 32.488 144.214 32.6707 144.139 32.8728C144.063 33.0749 144.032 33.2913 144.05 33.5065V37.7898H141.52L141.56 29.7935Z" fill="#FFCD34"/>
<path d="M158.3 34.7875V31.8952H157.12V29.7935H158.3V25.6202H160.82V29.7935H162.87V31.8952H160.82V34.8975C160.82 35.6982 161.08 35.8983 161.48 35.8983C161.802 35.8826 162.111 35.7633 162.36 35.5581L163.36 37.3295C162.725 37.834 161.93 38.0933 161.12 38.06C159.47 38.03 158.3 37.1894 158.3 34.7875Z" fill="#FFCD34"/>
<path d="M165.18 33.8067C165.128 32.9246 165.342 32.0471 165.794 31.2879C166.245 30.5287 166.915 29.9227 167.714 29.5485C168.514 29.1742 169.408 29.0488 170.28 29.1886C171.152 29.3283 171.962 29.7268 172.605 30.3324C173.248 30.938 173.694 31.7228 173.886 32.5852C174.079 33.4477 174.008 34.3481 173.683 35.1698C173.358 35.9915 172.795 36.6967 172.065 37.1942C171.335 37.6917 170.473 37.9584 169.59 37.96C169.025 37.9897 168.46 37.9046 167.928 37.7097C167.397 37.5149 166.911 37.2143 166.498 36.8262C166.086 36.4381 165.757 35.9704 165.53 35.4515C165.304 34.9325 165.185 34.373 165.18 33.8067V33.8067ZM171.39 33.8067C171.417 33.5528 171.39 33.2961 171.311 33.0534C171.232 32.8106 171.103 32.5871 170.933 32.3973C170.762 32.2076 170.553 32.0559 170.32 31.9521C170.087 31.8482 169.835 31.7946 169.58 31.7946C169.325 31.7946 169.073 31.8482 168.84 31.9521C168.607 32.0559 168.398 32.2076 168.227 32.3973C168.057 32.5871 167.928 32.8106 167.849 33.0534C167.77 33.2961 167.743 33.5528 167.77 33.8067C167.743 34.0606 167.77 34.3172 167.849 34.56C167.928 34.8028 168.057 35.0263 168.227 35.216C168.398 35.4058 168.607 35.5575 168.84 35.6613C169.073 35.7651 169.325 35.8188 169.58 35.8188C169.835 35.8188 170.087 35.7651 170.32 35.6613C170.553 35.5575 170.762 35.4058 170.933 35.216C171.103 35.0263 171.232 34.8028 171.311 34.56C171.39 34.3172 171.417 34.0606 171.39 33.8067Z" fill="#FFCD34"/>
<path d="M182.05 25.0197H186C189.92 25.0197 192.72 27.6318 192.72 31.4048C192.72 35.1778 189.94 37.7898 186 37.7898H182.07L182.05 25.0197ZM185.85 35.478C188.68 35.478 189.98 33.7867 189.98 31.4048C189.98 29.0229 188.68 27.3316 185.85 27.3316H184.68V35.478H185.85Z" fill="#FFCD34"/>
<path d="M195.27 26.8612C195.302 26.4571 195.485 26.0799 195.782 25.8047C196.08 25.5296 196.47 25.3768 196.875 25.3768C197.28 25.3768 197.67 25.5296 197.968 25.8047C198.265 26.0799 198.448 26.4571 198.48 26.8612C198.448 27.2653 198.265 27.6425 197.968 27.9177C197.67 28.1928 197.28 28.3456 196.875 28.3456C196.47 28.3456 196.08 28.1928 195.782 27.9177C195.485 27.6425 195.302 27.2653 195.27 26.8612V26.8612ZM195.61 29.7935H198.14V37.7998H195.61V29.7935Z" fill="#FFCD34"/>
<path d="M200.58 36.4388L202.06 35.1277C202.593 35.6563 203.31 35.9577 204.06 35.9684C204.88 35.9684 205.15 35.8183 205.15 35.478C205.15 35.1377 204.64 35.0477 203.34 34.7074C202.704 34.6457 202.113 34.351 201.682 33.88C201.25 33.4089 201.007 32.7947 201 32.1554C201 30.354 202.39 29.6234 204.1 29.6234C204.633 29.5986 205.165 29.6835 205.664 29.8729C206.163 30.0623 206.618 30.352 207 30.7243L205.65 32.1754C205.22 31.8049 204.677 31.593 204.11 31.5749C203.53 31.5749 203.25 31.725 203.25 32.0453C203.25 32.3656 203.75 32.5557 204.84 32.7959C205.93 33.0361 207.47 33.6065 207.47 35.2979C207.47 36.759 206.7 37.96 204.19 37.96C203.512 37.9988 202.834 37.8819 202.209 37.6183C201.583 37.3546 201.026 36.9511 200.58 36.4388V36.4388Z" fill="#FFCD34"/>
<path d="M209.73 33.7767C209.726 33.2114 209.839 32.6513 210.06 32.1312C210.281 31.611 210.606 31.1418 211.016 30.7525C211.425 30.3633 211.911 30.0622 212.441 29.868C212.971 29.6738 213.536 29.5905 214.1 29.6234C214.748 29.5887 215.394 29.7161 215.981 29.9939C216.568 30.2716 217.076 30.6912 217.46 31.2146L215.66 32.6858C215.49 32.4263 215.259 32.2128 214.987 32.0644C214.715 31.916 214.41 31.8372 214.1 31.8351C213.85 31.8279 213.601 31.8744 213.371 31.9716C213.14 32.0687 212.933 32.2141 212.763 32.3981C212.594 32.5821 212.466 32.8004 212.387 33.0382C212.309 33.276 212.283 33.5278 212.31 33.7767C212.277 34.0295 212.299 34.2866 212.374 34.5303C212.449 34.774 212.576 34.9985 212.746 35.1885C212.916 35.3786 213.125 35.5297 213.359 35.6314C213.592 35.7332 213.845 35.7833 214.1 35.7782C214.407 35.7785 214.71 35.7114 214.988 35.5817C215.266 35.452 215.513 35.2629 215.71 35.0277L217.42 36.5288C217.016 37.0102 216.506 37.391 215.93 37.6412C215.354 37.8913 214.727 38.0038 214.1 37.97C213.533 38.0031 212.965 37.9187 212.431 37.7221C211.898 37.5254 211.411 37.2208 211.001 36.8272C210.591 36.4336 210.266 35.9595 210.048 35.4346C209.829 34.9097 209.721 34.3453 209.73 33.7767V33.7767Z" fill="#FFCD34"/>
<path d="M219.43 33.8067C219.378 32.9246 219.592 32.0471 220.044 31.2879C220.495 30.5287 221.165 29.9227 221.964 29.5485C222.764 29.1742 223.658 29.0488 224.53 29.1886C225.402 29.3283 226.212 29.7268 226.855 30.3324C227.498 30.938 227.944 31.7228 228.136 32.5852C228.329 33.4477 228.258 34.3481 227.933 35.1698C227.608 35.9915 227.045 36.6967 226.315 37.1942C225.585 37.6917 224.723 37.9584 223.84 37.96C223.275 37.9897 222.71 37.9046 222.178 37.7097C221.647 37.5149 221.161 37.2143 220.748 36.8262C220.336 36.4381 220.007 35.9704 219.78 35.4515C219.554 34.9325 219.435 34.373 219.43 33.8067V33.8067ZM225.64 33.8067C225.672 33.5533 225.648 33.296 225.572 33.0523C225.495 32.8087 225.367 32.5843 225.197 32.3945C225.026 32.2047 224.817 32.0538 224.582 31.9521C224.348 31.8504 224.095 31.8003 223.84 31.8051C223.584 31.8007 223.33 31.8509 223.095 31.9524C222.86 32.0539 222.65 32.2044 222.478 32.3938C222.305 32.5832 222.175 32.8072 222.097 33.0509C222.018 33.2945 221.992 33.5522 222.02 33.8067C221.993 34.0609 222.02 34.3179 222.1 34.5608C222.179 34.8037 222.309 35.0271 222.481 35.2161C222.653 35.4052 222.863 35.5557 223.097 35.6577C223.331 35.7598 223.585 35.8111 223.84 35.8083C224.095 35.8114 224.347 35.7602 224.58 35.658C224.814 35.5557 225.022 35.4048 225.193 35.2154C225.363 35.0259 225.491 34.8023 225.568 34.5593C225.645 34.3164 225.67 34.0598 225.64 33.8067V33.8067Z" fill="#FFCD34"/>
<path d="M229.59 29.7935H232.39L233.51 32.1754C233.794 32.8612 234.014 33.5714 234.17 34.2971C234.314 33.573 234.521 32.863 234.79 32.1754L235.88 29.7935H238.45L234.17 37.96H233.93L229.59 29.7935Z" fill="#FFCD34"/>
<path d="M244.46 35.8583C245.176 35.8547 245.875 35.6311 246.46 35.2178L247.9 36.779C246.961 37.6097 245.731 38.0343 244.48 37.96C241.63 37.96 239.79 36.2386 239.79 33.7767C239.793 33.2099 239.911 32.6497 240.138 32.1301C240.364 31.6105 240.693 31.1423 241.105 30.7539C241.518 30.3655 242.005 30.065 242.537 29.8706C243.069 29.6763 243.635 29.5922 244.2 29.6234C247.08 29.6234 248.63 31.7651 248.45 34.5573H242.38C242.515 34.9863 242.799 35.3529 243.18 35.5913C243.562 35.8298 244.015 35.9244 244.46 35.8583V35.8583ZM245.9 33.0961C245.888 32.892 245.834 32.6925 245.742 32.5097C245.651 32.3269 245.523 32.1647 245.367 32.0327C245.211 31.9008 245.029 31.802 244.834 31.7422C244.639 31.6824 244.433 31.663 244.23 31.685C243.797 31.6355 243.361 31.7543 243.013 32.0169C242.665 32.2795 242.432 32.6659 242.36 33.0961H245.9Z" fill="#FFCD34"/>
<path d="M251.12 29.7935H253.66V31.2347C253.829 30.7527 254.147 30.3369 254.568 30.0474C254.988 29.7578 255.49 29.6093 256 29.6234C256.431 29.6223 256.854 29.7326 257.23 29.9436L256.43 32.2555C256.123 32.0902 255.779 32.0042 255.43 32.0053C254.29 32.0053 253.67 32.5357 253.67 34.247V37.7898H251.13L251.12 29.7935Z" fill="#FFCD34"/>
<path d="M262.25 28.4625C262.521 28.5652 262.767 28.7257 262.97 28.9328C263.165 29.1256 263.327 29.3486 263.45 29.5934C263.601 29.9053 263.68 30.2474 263.68 30.5942C263.682 30.9974 263.578 31.394 263.38 31.7451C263.182 32.1031 262.888 32.3979 262.53 32.5957C262.186 32.7991 261.794 32.9064 261.395 32.9064C260.996 32.9064 260.604 32.7991 260.26 32.5957C259.903 32.4005 259.611 32.1047 259.42 31.7451C259.214 31.3967 259.107 30.9988 259.11 30.5942C259.107 30.273 259.176 29.9551 259.31 29.6634C259.427 29.3948 259.593 29.1504 259.8 28.9429C260.228 28.5321 260.797 28.2996 261.39 28.2923C261.685 28.2946 261.977 28.3523 262.25 28.4625V28.4625ZM263.86 29.4633C263.732 29.1787 263.556 28.9181 263.34 28.6927C263.097 28.4502 262.813 28.2535 262.5 28.1122C262.152 27.9528 261.773 27.8741 261.39 27.882C260.986 27.8823 260.586 27.9711 260.22 28.1422C259.941 28.2786 259.688 28.4613 259.47 28.6826C259.232 28.9211 259.042 29.2031 258.91 29.5133C258.761 29.8503 258.686 30.2155 258.69 30.5841C258.69 31.0615 258.814 31.5306 259.05 31.9452C259.281 32.3678 259.628 32.7152 260.05 32.946C260.457 33.1822 260.919 33.3065 261.39 33.3063C261.802 33.3086 262.209 33.2162 262.58 33.0361C262.869 32.8894 263.133 32.6967 263.36 32.4656C263.598 32.2173 263.784 31.9249 263.91 31.605C264.036 31.2864 264.101 30.9468 264.1 30.6042C264.101 30.2144 264.019 29.829 263.86 29.4733V29.4633ZM261.3 31.0245C261.437 31.0148 261.574 31.0388 261.7 31.0946C261.78 31.1394 261.845 31.2052 261.89 31.2847C261.937 31.4094 261.961 31.5417 261.96 31.675C261.964 31.8262 261.981 31.9769 262.01 32.1254H262.65C262.638 31.9955 262.638 31.8649 262.65 31.7351C262.664 31.6053 262.664 31.4745 262.65 31.3447C262.633 31.237 262.592 31.1344 262.53 31.0445C262.478 30.9696 262.41 30.9079 262.33 30.8644C262.226 30.8092 262.115 30.7688 262 30.7443C262.113 30.7398 262.225 30.7161 262.33 30.6742C262.421 30.6243 262.5 30.5567 262.564 30.4753C262.628 30.3939 262.675 30.3004 262.702 30.2005C262.729 30.1005 262.736 29.9961 262.722 29.8935C262.708 29.7909 262.673 29.6923 262.62 29.6034C262.561 29.4876 262.471 29.3906 262.36 29.3232C262.232 29.2427 262.089 29.1882 261.94 29.163C261.764 29.1493 261.586 29.1493 261.41 29.163H260.34V32.1654H261V31.0245H261.3ZM261.66 29.6434C261.753 29.6687 261.837 29.7209 261.9 29.7935C261.953 29.86 261.988 29.9395 262 30.0237C262.003 30.1123 261.979 30.1997 261.93 30.2739C261.874 30.3569 261.794 30.42 261.7 30.454C261.602 30.4942 261.496 30.5146 261.39 30.5141H260.94V29.5133H261.39C261.484 29.5315 261.574 29.5618 261.66 29.6034V29.6434Z" fill="#FFCD34"/>
</svg>
